<svg width="224" height="224" viewBox="0 0 224 224" fill="none" xmlns="http://www.w3.org/2000/svg">
<circle cx="112" cy="112" r="112" fill="url(#paint0_radial_11_737)"/>
<g filter="url(#filter0_d_11_737)">
<path d="M49.6603 109.436C47.3297 110.834 44.6337 111.533 41.5731 111.533C40.5748 111.533 39.5418 111.433 38.4776 111.234L40.9768 101.648C41.8431 101.848 42.6764 101.948 43.476 101.948C47.8068 101.948 51.1063 99.6514 53.3715 95.0586H69.265L49.7678 170.34H33.8848L49.6603 109.436Z" fill="#373737"/>
</g>
<g filter="url(#filter1_d_11_737)">
<path d="M87.4713 118.672C85.3258 121.203 81.6115 122.468 76.329 122.468C75.2831 122.468 74.1828 122.414 73.0276 122.303L75.0913 114.38C80.0433 114.545 83.867 113.802 86.5635 112.151C91.2956 108.796 96.0271 107.116 100.76 107.116C109.509 107.116 113.883 112.675 113.883 123.789C113.883 128.632 113.168 133.776 111.737 139.224C109.701 147.093 106.812 153.805 103.071 159.362C97.6778 167.341 91.3781 171.331 84.17 171.331C75.4755 171.331 71.1289 165.746 71.1289 154.575C71.1289 149.899 71.8437 144.782 73.275 139.224C74.4309 134.657 76.1084 130.144 78.3102 125.687C82.2719 125.303 85.3258 122.964 87.4713 118.672ZM97.8715 118.342C95.0093 118.342 92.3684 121.313 89.9473 127.255C89.1764 129.237 87.9937 133.226 86.3986 139.224C84.8023 145.387 83.8939 149.706 83.6745 152.182C83.6196 152.953 83.5921 153.667 83.5921 154.328C83.5921 158.18 84.7748 160.106 87.1414 160.106C89.9473 160.106 92.5333 157.134 94.9 151.191C96.0002 148.55 97.2379 144.561 98.6137 139.224C100.154 133.226 101.035 128.906 101.255 126.265C101.31 125.495 101.338 124.779 101.338 124.119C101.338 120.268 100.183 118.342 97.8715 118.342Z" fill="#373737"/>
</g>
<g filter="url(#filter2_d_11_737)">
<path d="M131.298 118.672C129.153 121.203 125.439 122.468 120.156 122.468C119.11 122.468 118.01 122.414 116.855 122.303L118.918 114.38C123.87 114.545 127.694 113.802 130.391 112.151C135.123 108.796 139.854 107.116 144.587 107.116C153.336 107.116 157.711 112.675 157.711 123.789C157.711 128.632 156.995 133.776 155.565 139.224C153.529 147.093 150.64 153.805 146.899 159.362C141.505 167.341 135.205 171.331 127.997 171.331C119.303 171.331 114.956 165.746 114.956 154.575C114.956 149.899 115.671 144.782 117.102 139.224C118.258 134.657 119.936 130.144 122.137 125.687C126.099 125.303 129.153 122.964 131.298 118.672ZM141.699 118.342C138.836 118.342 136.196 121.313 133.775 127.255C133.004 129.237 131.821 133.226 130.226 139.224C128.629 145.387 127.721 149.706 127.502 152.182C127.447 152.953 127.419 153.667 127.419 154.328C127.419 158.18 128.602 160.106 130.969 160.106C133.775 160.106 136.361 157.134 138.727 151.191C139.827 148.55 141.065 144.561 142.441 139.224C143.981 133.226 144.862 128.906 145.082 126.265C145.137 125.495 145.165 124.779 145.165 124.119C145.165 120.268 144.01 118.342 141.699 118.342Z" fill="#373737"/>
</g>
<ellipse cx="36.5583" cy="86.5593" rx="4.02217" ry="4.02217" fill="url(#paint1_linear_11_737)"/>
<g filter="url(#filter3_d_11_737)">
<path d="M20.7161 66.9656C20.495 66.1116 20.3123 65.1311 20.2286 64.0406C19.9898 60.9304 20.6679 58.3585 21.2843 56.6889C19.7717 56.786 17.3977 56.7286 14.8844 55.6504C8.19128 52.7791 4.37127 44.3272 5.54422 36.8057C5.67251 35.9852 7.1112 28.0135 14.5667 23.8996C18.9738 21.4676 23.1793 21.7395 24.8777 21.949C25.5301 19.6697 27.8002 12.8013 34.4243 7.89199C35.7317 6.92371 44.2154 0.857386 54.6644 3.89055C63.0002 6.30974 69.4453 13.6089 71.5627 22.7994C73.1529 22.4548 76.2258 22.0247 79.821 23.0987C80.7581 23.3791 86.0914 25.0634 89.3683 30.352C93.4669 36.967 93.3282 47.1349 87.1488 52.9129C83.1156 56.6834 78.0555 57.1483 76.0382 57.2167C76.0181 57.6712 75.9942 58.3793 75.9979 59.248C76.0028 60.3403 76.0486 61.1204 76.059 61.3398C76.1048 62.3319 75.9771 63.9441 75.1622 66.6174C71.9702 68.6297 67.023 71.0141 62.0918 69.6389C57.0683 68.2381 55.5771 63.9929 52.0912 61.4992C47.8368 58.4563 39.3922 57.1844 20.7161 66.9656Z" fill="url(#paint2_linear_11_737)"/>
</g>
<path d="M91.7838 36.5201C91.4129 34.7203 89.5625 27.1194 82.311 23.8865C77.6113 21.7911 73.1962 22.6702 71.5877 23.0746C70.7025 20.7647 68.3505 15.5989 62.8957 11.8638C56.8037 7.69192 47.444 5.71563 39.4179 10.1575C38.777 10.5125 30.3856 15.3368 28.8571 25.024C28.3225 28.4133 28.8051 31.2724 29.2633 33.0666C26.4153 28.1219 20.1113 26.4688 15.4531 29.1672C10.2219 32.1973 9.41733 39.3516 12.1218 43.2211C14.2502 46.2659 18.3036 46.9232 18.54 46.9581C20.2695 47.2146 21.7137 46.9526 22.602 46.7143C22.718 47.5317 22.8469 48.8122 22.7645 50.37C22.5855 53.7385 21.5634 55.6378 20.9592 57.9892C20.4736 59.8818 20.0838 62.7451 20.8144 66.6177C23.8562 65.7985 28.3243 64.6921 33.8128 63.6933C45.4041 61.582 47.2021 61.4879 48.9224 61.987C55.0425 63.7623 55.4707 68.4529 61.2249 70.1811C66.2007 71.6754 71.2077 69.7749 74.7241 67.8792C75.2348 66.7735 75.5128 65.8119 75.6729 65.1173C75.814 64.5058 76.1701 62.9101 76.059 60.954C76.0241 60.34 75.9362 59.5721 75.9979 58.3747C76.0235 57.8768 76.0663 57.4681 76.0993 57.1969C76.4958 57.2048 77.0529 57.2005 77.7151 57.1437C81.3018 56.8352 83.8444 55.3293 84.5048 54.9194C87.2429 53.2186 88.6803 51.0768 89.2973 50.1262C93.2328 44.0666 91.9573 37.3637 91.7838 36.5201ZM56.965 35.666C49.5247 36.5109 46.8056 39.8972 38.4428 43.573C32.2152 46.3111 27.2467 48.412 22.6288 46.3893C19.9653 45.2231 18.3225 43.0806 17.3756 41.5155C18.435 42.0971 20.0374 42.8436 22.087 43.3024C24.8367 43.9176 27.6359 43.8455 31.5646 42.923C33.0656 42.5711 35.136 41.9993 43.6967 38.2117C50.1301 35.3648 52.509 34.1174 56.2069 34.366C58.2858 34.5065 59.9554 35.0637 61.0269 35.5035C60.1185 35.4736 58.6908 35.4699 56.965 35.666Z" fill="url(#paint3_linear_11_737)"/>
<g filter="url(#filter4_d_11_737)">
<path d="M70.4341 67.0354C68.6753 67.8504 66.9122 68.6672 64.5303 68.5401C63.4178 68.4814 61.0689 68.3562 59.3907 66.5956C57.5842 64.7011 57.6912 62.1036 57.7467 60.7382C57.8536 58.1412 58.8598 56.3066 60.224 53.8856C61.1336 52.2716 62.5851 50.0516 64.8315 47.7271C62.0714 48.0569 58.4059 48.7913 54.3666 50.4822C48.9411 52.7536 45.0924 55.8112 42.7214 58.0294C42.518 57.4912 42.336 56.9127 42.1887 56.2932C41.2913 52.5123 42.1484 49.1425 42.9298 47.0557C40.612 47.823 39.0334 48.853 37.9985 49.6832C35.3117 51.8385 33.7869 53.0615 32.6158 54.8405C32.4514 55.0897 32.0391 55.7379 31.7477 55.6566C31.2547 55.5186 31.4532 53.4268 31.4697 53.2601C31.5516 52.4414 31.7697 51.4151 32.303 50.2739C31.1392 51.3424 29.4366 53.001 27.5801 55.2052C24.7289 58.5896 20.7061 63.4989 18.7591 70.6703C17.4151 75.6211 17.7041 79.5548 17.7872 80.5096C17.869 81.4516 17.9888 82.2354 18.0939 82.8268C20.0262 80.1553 24.7729 74.1727 32.449 72.2544C32.9603 72.1267 37.9533 70.9257 41.7672 72.0528C43.4661 72.401 45.3899 73.0058 48.5556 73.8538C59.1298 76.6853 64.4906 78.0654 68.1072 76.3194C72.3707 74.2619 74.4533 69.71 74.694 69.1657C75.7612 66.7538 75.9543 64.56 75.9677 63.2154C73.8778 65.24 71.8288 66.3897 70.4341 67.0354Z" fill="#373737"/>
</g>
<path d="M34.8997 71.0912C29.3734 71.3777 25.6157 73.8898 24.0952 74.9369C22.8496 75.7946 20.4676 77.4703 18.5445 80.5695C17.6263 82.0479 17.0838 83.4139 16.757 84.4145L16.7429 84.4188C16.4533 85.2142 16.1632 86.009 15.873 86.8044C10.8873 91.0093 7.26099 94.274 5.89499 95.6137C5.50829 95.9924 4.78803 96.7219 4.48257 97.871C4.24982 98.7464 4.34939 99.5223 4.44775 99.989C6.1082 99.0818 7.58782 98.5173 8.69601 98.16C11.9155 97.1226 14.3164 97.0915 14.8259 97.0896C16.8828 97.0811 17.9568 97.0768 18.9061 97.7665C20.7535 99.1087 20.7144 102.051 20.6772 103.462C20.4914 110.524 15.642 112.628 15.7575 119.309C15.7813 120.691 15.8308 122.339 16.892 123.916C18.9886 127.033 23.9278 128.222 27.8425 126.764C32.9699 124.855 34.1715 119.216 34.3255 118.429C35.0201 114.881 33.7848 111.99 32.9363 110.002C31.7297 107.178 30.1194 105.349 27.2872 102.131C24.2186 98.645 23.8044 98.9297 22.425 96.9448C18.9275 91.9097 19.1145 86.8276 19.1145 86.8276C19.423 79.7942 25.5828 75.5557 26.5675 74.8782C26.5675 74.8782 31.0498 71.7944 36.8711 71.6423C37.9989 71.6129 39.1999 71.7101 39.1999 71.7101C41.3583 71.8848 42.9332 72.3247 42.9289 72.3454C42.9228 72.3766 39.3581 70.8609 34.8997 71.0912Z" fill="#2A2F33"/>
<path d="M32.3156 50.3037C29.7089 52.5176 26.8981 55.4152 24.3665 59.132C22.9314 61.239 20.5513 64.7932 19.0186 70.0446C18.291 72.5383 17.9617 74.6991 17.7998 76.2594C18.911 75.332 20.3876 74.2904 22.2546 73.4028C23.174 72.9654 24.0506 72.6312 24.854 72.374C24.9639 71.2481 25.1154 70.0916 25.3146 68.9077C26.5822 61.3728 29.393 55.1378 32.3156 50.3037Z" fill="url(#paint4_linear_11_737)"/>
<path d="M42.9275 47.04C42.2585 47.271 41.3837 47.6155 40.4044 48.1256C38.9737 48.8715 37.9999 49.6174 37.4537 50.0402C33.9545 52.7471 31.9091 55.8084 31.9091 55.8084C29.4765 59.4482 28.6646 63.055 28.3604 65.2524C30.2022 65.0087 32.0435 64.7649 33.8848 64.5212C34.288 62.3757 34.9954 59.7335 36.2753 56.8708C38.3011 52.3427 40.939 49.1025 42.9275 47.04Z" fill="url(#paint5_linear_11_737)"/>
<path d="M41.9683 66.7415C43.8481 64.5422 45.9869 62.2611 48.4134 59.9714C54.1559 54.5538 59.9156 50.5982 64.9257 47.7178C61.7392 48.0709 56.8396 49.0147 51.5217 51.7797C44.682 55.3358 40.5284 60.1467 38.4482 62.9502C39.6218 64.2141 40.7947 65.4775 41.9683 66.7415Z" fill="url(#paint6_linear_11_737)"/>
<path d="M76.0013 63.3428C75.9169 65.1443 75.507 67.7291 74.0109 70.37C73.2931 71.6365 70.9655 75.7442 66.6183 76.7876C64.7929 77.2257 63.0127 77.0283 61.5813 76.8689C59.7578 76.6661 58.2721 76.2494 57.2354 75.8939C57.6886 75.0459 58.1419 74.1974 58.5946 73.3488C60.1066 73.6409 63.4819 74.0703 67.2274 72.5632C73.3829 70.0866 75.6243 64.3557 76.0013 63.3428Z" fill="url(#paint7_linear_11_737)"/>
<path d="M34.8997 71.0912C29.3734 71.3777 25.6157 73.8898 24.0952 74.9369C22.8496 75.7946 20.4676 77.4703 18.5445 80.5695C17.6263 82.0479 17.0838 83.4139 16.757 84.4145L16.7429 84.4188C16.4533 85.2142 16.1632 86.009 15.873 86.8044C10.8873 91.0093 7.26099 94.274 5.89499 95.6137C5.50829 95.9924 4.78803 96.7219 4.48257 97.871C4.24982 98.7464 4.34939 99.5223 4.44775 99.989C6.1082 99.0818 7.58782 98.5173 8.69601 98.16C11.9155 97.1226 14.3164 97.0915 14.8259 97.0896C16.8828 97.0811 17.9568 97.0768 18.9061 97.7665C20.7535 99.1087 20.7144 102.051 20.6772 103.462C20.4914 110.524 15.642 112.628 15.7575 119.309C15.7813 120.691 15.8308 122.339 16.892 123.916C18.9886 127.033 23.9278 128.222 27.8425 126.764C32.9699 124.855 34.1715 119.216 34.3255 118.429C35.0201 114.881 33.7848 111.99 32.9363 110.002C31.7297 107.178 30.1194 105.349 27.2872 102.131C24.2186 98.645 23.8044 98.9297 22.425 96.9448C18.9275 91.9097 19.1145 86.8276 19.1145 86.8276C19.423 79.7942 25.5828 75.5557 26.5675 74.8782C26.5675 74.8782 31.0498 71.7944 36.8711 71.6423C37.9989 71.6129 39.1999 71.7101 39.1999 71.7101C41.3583 71.8848 42.9332 72.3247 42.9289 72.3454C42.9228 72.3766 39.3581 70.8609 34.8997 71.0912Z" fill="url(#paint8_linear_11_737)"/>
<path d="M4.34325 99.5487C4.32981 99.1553 4.34814 98.5517 4.54668 97.8638C4.97982 96.3647 6.03975 95.4214 8.14188 93.596C9.18715 92.6888 9.5598 92.4659 11.092 91.1249C11.3626 90.8873 11.709 90.5812 12.3694 90.0045C13.1385 89.3331 13.8502 88.718 14.1099 88.4956C14.7977 87.906 15.9658 86.9426 17.804 85.5742C17.4558 86.5199 17.1161 87.7338 16.9659 89.1682C16.8913 89.875 16.8742 90.5293 16.8901 91.1182C16.1833 91.4634 15.4691 91.8305 14.7489 92.2221C10.6497 94.4513 7.20719 97.0025 4.34325 99.5487Z" fill="url(#paint9_linear_11_737)"/>
<path opacity="0.75" d="M63.7793 19.8525C64.3975 21.0206 65.0414 22.5008 65.5125 24.2719C66.4105 27.6465 66.284 30.5825 66.0323 32.5051C66.4227 32.1562 67.0012 31.6907 67.7655 31.2484C67.9542 31.1391 71.6826 29.0479 75.5649 29.9918C79.3905 30.9216 82.456 34.5767 83.1915 39.178C83.2294 38.652 83.2459 37.9189 83.1482 37.0545C83.0681 36.3519 82.5153 32.0615 79.2481 29.4285C76.2791 27.035 71.8903 26.6727 67.9824 28.3888C67.9103 27.2219 67.6195 25.129 66.336 22.9291C65.5008 21.4983 64.5228 20.497 63.7793 19.8525Z" fill="#F9E1C2"/>
<g filter="url(#filter5_d_11_737)">
<path d="M34.9008 71.0922C29.3739 71.3787 25.6162 73.8908 24.0963 74.9379C22.85 75.7956 20.4687 77.4713 18.5449 80.5704C17.6274 82.0488 17.0843 83.4148 16.758 84.4155L16.744 84.4198C16.4538 85.2152 16.1642 86.01 15.874 86.8054C10.8884 91.0102 7.26206 94.275 5.89546 95.6147C5.50875 95.9934 4.78849 96.7229 4.48304 97.872C4.25089 98.7474 4.35047 99.5233 4.44883 99.99C6.10867 99.0828 7.58829 98.5183 8.69709 98.1609C11.9166 97.1236 14.3168 97.0925 14.8263 97.0906C16.8839 97.0821 17.9579 97.0778 18.9072 97.7675C20.754 99.1097 20.7155 102.052 20.6782 103.463C20.4925 110.525 15.6431 112.629 15.7586 119.31C15.7824 120.692 15.8319 122.34 16.893 123.917C18.9897 127.034 23.9283 128.223 27.8436 126.765C32.9703 124.856 34.172 119.217 34.3259 118.43C35.0212 114.882 33.7859 111.991 32.9367 110.003C31.7302 107.179 30.1204 105.35 27.2883 102.132C24.2197 98.646 23.8049 98.9307 22.426 96.9458C18.928 91.9107 19.1155 86.8286 19.1155 86.8286C19.424 79.7952 25.5838 75.5567 26.5686 74.8792C26.5686 74.8792 31.0509 71.7954 36.8722 71.6432C37.9993 71.6139 39.201 71.711 39.201 71.711C41.3587 71.8858 42.9343 72.3256 42.93 72.3464C42.9233 72.3775 39.3586 70.8619 34.9008 71.0922Z" fill="url(#paint10_linear_11_737)"/>
</g>
<path d="M4.3439 98.1514C4.32924 97.7579 4.34573 97.1556 4.54061 96.4689C4.96519 94.9722 6.0129 94.0332 8.09121 92.217C9.12426 91.3135 9.49386 91.0923 11.0077 89.7569C11.2759 89.5204 11.618 89.2156 12.2711 88.642C13.0316 87.9736 13.7348 87.3615 13.9914 87.1397C14.6719 86.5533 15.8272 85.5941 17.6452 84.2324C17.3025 85.1763 16.9702 86.3877 16.8248 87.8203C16.7533 88.5259 16.738 89.1796 16.7557 89.7679C16.0562 90.1106 15.3494 90.4753 14.6365 90.8644C10.5801 93.0784 7.17485 95.6167 4.3439 98.1514Z" fill="url(#paint11_linear_11_737)"/>
<g filter="url(#filter6_d_11_737)">
<path d="M87.4357 71.1423C86.2897 71.7978 84.9634 72.1246 83.4587 72.1246C82.9675 72.1246 82.477 72.0923 81.9858 72.0281L83.2131 67.4115H84.4404C86.5346 67.4115 88.1389 66.299 89.2519 64.0723H97.0582C100.953 64.0723 104.275 65.5128 107.025 68.3932C108.105 69.9321 108.645 71.6658 108.645 73.5969C108.645 76.1499 107.597 78.6382 105.502 81.0598C103.604 82.664 101.607 83.7276 99.5128 84.2512C97.6147 84.8401 95.5028 85.0044 93.1795 84.7417L94.2596 80.2742C98.3838 80.6346 100.904 78.687 101.82 74.4321C101.853 74.1052 101.87 73.7778 101.87 73.4503C101.87 71.7801 101.165 70.5705 99.7565 69.8172C98.8389 69.3261 97.7912 69.097 96.6134 69.1294C96.22 69.1617 95.9249 69.1617 95.7288 69.1288L87.4455 100.894H79.6289L87.4357 71.1423Z" fill="white"/>
</g>
<g filter="url(#filter7_d_11_737)">
<path d="M111.05 100.943H104.299L113.429 65.9873H120.231L111.05 100.943Z" fill="white"/>
</g>
<g filter="url(#filter8_d_11_737)">
<path d="M124.744 95.493C124.939 95.6573 125.215 95.7398 125.574 95.7398C126.16 95.7398 126.86 95.5431 127.675 95.1485C128.652 94.6567 129.449 93.6725 130.068 92.1965L133.86 77.7217H140.655L134.616 101.091H127.769L128.184 99.6667C126.221 100.715 124.224 101.238 122.194 101.238C121.768 101.238 121.409 101.221 121.114 101.189C118.43 100.502 117.089 98.5378 117.089 95.2975C117.089 94.7416 117.138 94.2174 117.236 93.7263L121.458 77.7217H128.211L123.99 93.7214C123.971 93.8851 123.962 94.0494 123.962 94.2132C123.962 94.7721 124.222 95.1985 124.744 95.493Z" fill="white"/>
</g>
<g filter="url(#filter9_d_11_737)">
<path d="M158.819 84.2512C156.953 82.9096 154.76 82.2382 152.24 82.2382C151.684 82.2382 151.127 82.4178 150.571 82.7783C150.014 83.1387 149.737 83.5804 149.737 84.104C149.737 84.6275 150.44 85.2494 151.847 85.9697C153.811 86.9514 155.12 87.704 155.775 88.2276C157.149 89.3743 157.837 90.7482 157.837 92.3518C157.837 95.1339 156.904 97.368 155.039 99.0535C153.173 100.74 150.832 101.582 148.018 101.582C147.069 101.582 145.727 101.385 143.992 100.993C142.093 100.6 140.867 100.191 140.31 99.7652L141.685 94.3159C143.484 95.3636 145.645 95.8865 148.165 95.8865C150.325 95.8865 151.406 95.2811 151.406 94.0697C151.406 93.1539 150.759 92.3359 149.466 91.6151C148.173 90.896 146.888 90.1916 145.612 89.5044C144.27 88.4903 143.599 87.2135 143.599 85.6746C143.599 83.1546 144.581 81.0439 146.545 79.3413C148.411 77.7383 150.62 76.9355 153.173 76.9355C156.086 76.9355 158.426 77.5416 160.193 78.7524L158.819 84.2512Z" fill="white"/>
</g>
<defs>
<filter id="filter0_d_11_737" x="30.8848" y="95.0586" width="41.3799" height="81.2812" filterUnits="userSpaceOnUse" color-interpolation-filters="sRGB">
<feFlood flood-opacity="0" result="BackgroundImageFix"/>
<feColorMatrix in="SourceAlpha" type="matrix" values="0 0 0 0 0 0 0 0 0 0 0 0 0 0 0 0 0 0 127 0" result="hardAlpha"/>
<feOffset dy="3"/>
<feGaussianBlur stdDeviation="1.5"/>
<feComposite in2="hardAlpha" operator="out"/>
<feColorMatrix type="matrix" values="0 0 0 0 0 0 0 0 0 0 0 0 0 0 0 0 0 0 0.690196 0"/>
<feBlend mode="normal" in2="BackgroundImageFix" result="effect1_dropShadow_11_737"/>
<feBlend mode="normal" in="SourceGraphic" in2="effect1_dropShadow_11_737" result="shape"/>
</filter>
<filter id="filter1_d_11_737" x="68.1289" y="107.116" width="48.7549" height="70.2148" filterUnits="userSpaceOnUse" color-interpolation-filters="sRGB">
<feFlood flood-opacity="0" result="BackgroundImageFix"/>
<feColorMatrix in="SourceAlpha" type="matrix" values="0 0 0 0 0 0 0 0 0 0 0 0 0 0 0 0 0 0 127 0" result="hardAlpha"/>
<feOffset dy="3"/>
<feGaussianBlur stdDeviation="1.5"/>
<feComposite in2="hardAlpha" operator="out"/>
<feColorMatrix type="matrix" values="0 0 0 0 0 0 0 0 0 0 0 0 0 0 0 0 0 0 0.690196 0"/>
<feBlend mode="normal" in2="BackgroundImageFix" result="effect1_dropShadow_11_737"/>
<feBlend mode="normal" in="SourceGraphic" in2="effect1_dropShadow_11_737" result="shape"/>
</filter>
<filter id="filter2_d_11_737" x="111.956" y="107.116" width="48.7549" height="70.2148" filterUnits="userSpaceOnUse" color-interpolation-filters="sRGB">
<feFlood flood-opacity="0" result="BackgroundImageFix"/>
<feColorMatrix in="SourceAlpha" type="matrix" values="0 0 0 0 0 0 0 0 0 0 0 0 0 0 0 0 0 0 127 0" result="hardAlpha"/>
<feOffset dy="3"/>
<feGaussianBlur stdDeviation="1.5"/>
<feComposite in2="hardAlpha" operator="out"/>
<feColorMatrix type="matrix" values="0 0 0 0 0 0 0 0 0 0 0 0 0 0 0 0 0 0 0.690196 0"/>
<feBlend mode="normal" in2="BackgroundImageFix" result="effect1_dropShadow_11_737"/>
<feBlend mode="normal" in="SourceGraphic" in2="effect1_dropShadow_11_737" result="shape"/>
</filter>
<filter id="filter3_d_11_737" x="2.33398" y="3.04883" width="92.8301" height="72.9971" filterUnits="userSpaceOnUse" color-interpolation-filters="sRGB">
<feFlood flood-opacity="0" result="BackgroundImageFix"/>
<feColorMatrix in="SourceAlpha" type="matrix" values="0 0 0 0 0 0 0 0 0 0 0 0 0 0 0 0 0 0 127 0" result="hardAlpha"/>
<feOffset dy="3"/>
<feGaussianBlur stdDeviation="1.5"/>
<feComposite in2="hardAlpha" operator="out"/>
<feColorMatrix type="matrix" values="0 0 0 0 0 0 0 0 0 0 0 0 0 0 0 0 0 0 0.690196 0"/>
<feBlend mode="normal" in2="BackgroundImageFix" result="effect1_dropShadow_11_737"/>
<feBlend mode="normal" in="SourceGraphic" in2="effect1_dropShadow_11_737" result="shape"/>
</filter>
<filter id="filter4_d_11_737" x="14.7031" y="47.0557" width="64.2646" height="41.7715" filterUnits="userSpaceOnUse" color-interpolation-filters="sRGB">
<feFlood flood-opacity="0" result="BackgroundImageFix"/>
<feColorMatrix in="SourceAlpha" type="matrix" values="0 0 0 0 0 0 0 0 0 0 0 0 0 0 0 0 0 0 127 0" result="hardAlpha"/>
<feOffset dy="3"/>
<feGaussianBlur stdDeviation="1.5"/>
<feComposite in2="hardAlpha" operator="out"/>
<feColorMatrix type="matrix" values="0 0 0 0 0 0 0 0 0 0 0 0 0 0 0 0 0 0 0.690196 0"/>
<feBlend mode="normal" in2="BackgroundImageFix" result="effect1_dropShadow_11_737"/>
<feBlend mode="normal" in="SourceGraphic" in2="effect1_dropShadow_11_737" result="shape"/>
</filter>
<filter id="filter5_d_11_737" x="1.34082" y="71.0684" width="44.5889" height="62.3154" filterUnits="userSpaceOnUse" color-interpolation-filters="sRGB">
<feFlood flood-opacity="0" result="BackgroundImageFix"/>
<feColorMatrix in="SourceAlpha" type="matrix" values="0 0 0 0 0 0 0 0 0 0 0 0 0 0 0 0 0 0 127 0" result="hardAlpha"/>
<feOffset dy="3"/>
<feGaussianBlur stdDeviation="1.5"/>
<feComposite in2="hardAlpha" operator="out"/>
<feColorMatrix type="matrix" values="0 0 0 0 0 0 0 0 0 0 0 0 0 0 0 0 0 0 0.690196 0"/>
<feBlend mode="normal" in2="BackgroundImageFix" result="effect1_dropShadow_11_737"/>
<feBlend mode="normal" in="SourceGraphic" in2="effect1_dropShadow_11_737" result="shape"/>
</filter>
<filter id="filter6_d_11_737" x="76.6289" y="64.0723" width="35.0156" height="42.8223" filterUnits="userSpaceOnUse" color-interpolation-filters="sRGB">
<feFlood flood-opacity="0" result="BackgroundImageFix"/>
<feColorMatrix in="SourceAlpha" type="matrix" values="0 0 0 0 0 0 0 0 0 0 0 0 0 0 0 0 0 0 127 0" result="hardAlpha"/>
<feOffset dy="3"/>
<feGaussianBlur stdDeviation="1.5"/>
<feComposite in2="hardAlpha" operator="out"/>
<feColorMatrix type="matrix" values="0 0 0 0 0 0 0 0 0 0 0 0 0 0 0 0 0 0 0.690196 0"/>
<feBlend mode="normal" in2="BackgroundImageFix" result="effect1_dropShadow_11_737"/>
<feBlend mode="normal" in="SourceGraphic" in2="effect1_dropShadow_11_737" result="shape"/>
</filter>
<filter id="filter7_d_11_737" x="101.299" y="65.9873" width="21.9316" height="40.9561" filterUnits="userSpaceOnUse" color-interpolation-filters="sRGB">
<feFlood flood-opacity="0" result="BackgroundImageFix"/>
<feColorMatrix in="SourceAlpha" type="matrix" values="0 0 0 0 0 0 0 0 0 0 0 0 0 0 0 0 0 0 127 0" result="hardAlpha"/>
<feOffset dy="3"/>
<feGaussianBlur stdDeviation="1.5"/>
<feComposite in2="hardAlpha" operator="out"/>
<feColorMatrix type="matrix" values="0 0 0 0 0 0 0 0 0 0 0 0 0 0 0 0 0 0 0.690196 0"/>
<feBlend mode="normal" in2="BackgroundImageFix" result="effect1_dropShadow_11_737"/>
<feBlend mode="normal" in="SourceGraphic" in2="effect1_dropShadow_11_737" result="shape"/>
</filter>
<filter id="filter8_d_11_737" x="114.089" y="77.7217" width="29.5654" height="29.5166" filterUnits="userSpaceOnUse" color-interpolation-filters="sRGB">
<feFlood flood-opacity="0" result="BackgroundImageFix"/>
<feColorMatrix in="SourceAlpha" type="matrix" values="0 0 0 0 0 0 0 0 0 0 0 0 0 0 0 0 0 0 127 0" result="hardAlpha"/>
<feOffset dy="3"/>
<feGaussianBlur stdDeviation="1.5"/>
<feComposite in2="hardAlpha" operator="out"/>
<feColorMatrix type="matrix" values="0 0 0 0 0 0 0 0 0 0 0 0 0 0 0 0 0 0 0.690196 0"/>
<feBlend mode="normal" in2="BackgroundImageFix" result="effect1_dropShadow_11_737"/>
<feBlend mode="normal" in="SourceGraphic" in2="effect1_dropShadow_11_737" result="shape"/>
</filter>
<filter id="filter9_d_11_737" x="137.31" y="76.9355" width="25.8838" height="30.6465" filterUnits="userSpaceOnUse" color-interpolation-filters="sRGB">
<feFlood flood-opacity="0" result="BackgroundImageFix"/>
<feColorMatrix in="SourceAlpha" type="matrix" values="0 0 0 0 0 0 0 0 0 0 0 0 0 0 0 0 0 0 127 0" result="hardAlpha"/>
<feOffset dy="3"/>
<feGaussianBlur stdDeviation="1.5"/>
<feComposite in2="hardAlpha" operator="out"/>
<feColorMatrix type="matrix" values="0 0 0 0 0 0 0 0 0 0 0 0 0 0 0 0 0 0 0.690196 0"/>
<feBlend mode="normal" in2="BackgroundImageFix" result="effect1_dropShadow_11_737"/>
<feBlend mode="normal" in="SourceGraphic" in2="effect1_dropShadow_11_737" result="shape"/>
</filter>
<radialGradient id="paint0_radial_11_737" cx="0" cy="0" r="1" gradientUnits="userSpaceOnUse" gradientTransform="scale(112)">
<stop stop-color="#FF8000"/>
<stop offset="1" stop-color="#FFBB00" stop-opacity="0"/>
</radialGradient>
<linearGradient id="paint1_linear_11_737" x1="40.5805" y1="86.5593" x2="32.5361" y2="86.5593" gradientUnits="userSpaceOnUse">
<stop stop-color="#DA000D"/>
<stop offset="1" stop-color="#70120D"/>
</linearGradient>
<linearGradient id="paint2_linear_11_737" x1="42.8191" y1="81.8208" x2="53.6384" y2="81.8208" gradientUnits="userSpaceOnUse">
<stop stop-color="#EC6416"/>
<stop offset="1" stop-color="#C11B1B"/>
</linearGradient>
<linearGradient id="paint3_linear_11_737" x1="109.797" y1="37.5526" x2="8.98046" y2="37.5526" gradientUnits="userSpaceOnUse">
<stop stop-color="white" stop-opacity="0.101961"/>
<stop offset="1" stop-color="white" stop-opacity="0.8"/>
</linearGradient>
<linearGradient id="paint4_linear_11_737" x1="30.0549" y1="52.734" x2="23.1416" y2="52.734" gradientUnits="userSpaceOnUse">
<stop stop-color="#AC111A" stop-opacity="0"/>
<stop offset="1" stop-color="#AC111A"/>
</linearGradient>
<linearGradient id="paint5_linear_11_737" x1="41.1153" y1="45.2966" x2="33.4024" y2="45.2966" gradientUnits="userSpaceOnUse">
<stop stop-color="#AC111A" stop-opacity="0"/>
<stop offset="1" stop-color="#AC111A"/>
</linearGradient>
<linearGradient id="paint6_linear_11_737" x1="62.1314" y1="45.5495" x2="49.6208" y2="45.5495" gradientUnits="userSpaceOnUse">
<stop stop-color="#AC111A" stop-opacity="0"/>
<stop offset="1" stop-color="#AC111A"/>
</linearGradient>
<linearGradient id="paint7_linear_11_737" x1="76.9233" y1="67.2357" x2="63.0408" y2="67.2357" gradientUnits="userSpaceOnUse">
<stop stop-color="#AC111A" stop-opacity="0"/>
<stop offset="1" stop-color="#AC111A"/>
</linearGradient>
<linearGradient id="paint8_linear_11_737" x1="23.7708" y1="127.374" x2="23.6083" y2="127.374" gradientUnits="userSpaceOnUse">
<stop stop-color="#EC6416"/>
<stop offset="1" stop-color="#C11B1B"/>
</linearGradient>
<linearGradient id="paint9_linear_11_737" x1="2427.15" y1="-3316.78" x2="2422.63" y2="-3316.78" gradientUnits="userSpaceOnUse">
<stop stop-color="#AC111A" stop-opacity="0"/>
<stop offset="1" stop-color="#AC111A"/>
</linearGradient>
<linearGradient id="paint10_linear_11_737" x1="13.9881" y1="85.1471" x2="13.9881" y2="85.1471" gradientUnits="userSpaceOnUse">
<stop stop-color="#DF2A08"/>
<stop offset="0.148689" stop-color="#D92808"/>
<stop offset="0.333542" stop-color="#CA2508"/>
<stop offset="0.537635" stop-color="#B12008"/>
<stop offset="0.755532" stop-color="#8D1909"/>
<stop offset="0.982215" stop-color="#601009"/>
<stop offset="1" stop-color="#5D100A"/>
</linearGradient>
<linearGradient id="paint11_linear_11_737" x1="2425.83" y1="-3291.88" x2="2421.31" y2="-3291.88" gradientUnits="userSpaceOnUse">
<stop stop-color="#AC111A" stop-opacity="0"/>
<stop offset="1" stop-color="#AC111A"/>
</linearGradient>
</defs>
</svg>
