<svg width="279" height="225" viewBox="0 0 279 225" fill="none" xmlns="http://www.w3.org/2000/svg">
<path opacity="0.5" d="M262.786 223.562H232.58C232.361 223.562 232.184 223.385 232.184 223.166C232.184 223.061 232.226 222.961 232.3 222.886C232.374 222.812 232.475 222.771 232.58 222.771H262.786C262.891 222.771 262.992 222.812 263.066 222.886C263.14 222.961 263.182 223.061 263.182 223.166C263.182 223.385 263.005 223.562 262.786 223.562Z" fill="#7098B3"/>
<path opacity="0.5" d="M186.869 223.562H156.662C156.443 223.562 156.266 223.385 156.266 223.166C156.266 222.948 156.443 222.771 156.662 222.771H186.869C186.974 222.771 187.074 222.812 187.149 222.886C187.223 222.961 187.265 223.061 187.265 223.166C187.265 223.385 187.087 223.562 186.869 223.562Z" fill="#7098B3"/>
<path d="M259.645 159.323C261.622 159.297 260.874 147.581 259.513 147.958C258.152 148.335 255.162 153.955 255.162 153.955L259.645 159.323Z" fill="#F5D798"/>
<path d="M259.128 158.709C260.877 158.686 260.215 148.53 259.012 148.857C257.808 149.185 255.16 154.056 255.16 154.056L259.128 158.709Z" fill="white"/>
<path d="M229.051 203.465C229.185 202.542 235.909 202.542 235.448 203.465C234.986 204.387 231.691 205.903 230.633 205.706C229.575 205.508 229.051 203.465 229.051 203.465Z" fill="#452B21"/>
<path d="M236.243 198.916L234.397 204.915L230.245 204.248L231.827 195.29L236.243 198.916Z" fill="#FE9D77"/>
<path d="M229.052 203.465C229.052 203.465 234.459 204.652 235.448 203.465C235.646 204.519 237.953 205.904 240.195 206.033C242.436 206.162 241.975 208.67 241.975 208.67H227.669C227.669 208.67 227.669 206.56 228.263 205.769C228.68 205.063 228.948 204.279 229.052 203.465Z" fill="#633E2F"/>
<path d="M241.882 207.264C240.116 207.484 238.335 207.555 236.557 207.475C236.412 207.467 236.267 207.453 236.122 207.444C235.709 207.553 235.279 207.584 234.854 207.536C233.425 207.361 231.994 207.356 230.559 207.275C229.929 207.239 229.3 207.199 228.669 207.167C228.466 207.157 228.264 207.163 228.062 207.184C227.97 207.207 227.877 207.224 227.784 207.236C227.714 207.712 227.676 208.191 227.669 208.672H241.975C242.046 208.202 242.015 207.721 241.882 207.264Z" fill="#452B21"/>
<path d="M218.178 203.465C218.312 202.542 225.036 202.542 224.575 203.465C224.113 204.387 220.818 205.903 219.76 205.706C218.702 205.508 218.178 203.465 218.178 203.465Z" fill="#452B21"/>
<path d="M217.782 196.741C217.782 196.741 220.816 201.488 221.673 201.62C222.53 201.751 224.971 202.126 225.898 200.961C226.824 199.796 219.165 194.102 217.782 196.741Z" fill="#072130"/>
<ellipse cx="185.773" cy="209.427" rx="14.1362" ry="14.1362" fill="#633E2F"/>
<ellipse cx="264.024" cy="209.427" rx="14.1362" ry="14.1362" fill="#633E2F"/>
<path d="M197.151 172.086L174.87 190.542C174.87 190.542 199.163 206.364 200.727 208.672C201.758 210.136 203.038 211.408 204.509 212.429H243.824C245.074 212.429 246.245 211.818 246.96 210.793L264.025 186.324C264.025 186.324 252.921 160.708 251.999 157.167C254.108 157.977 257.668 159.612 259.645 159.322C258.722 157.186 258.064 150.198 259.514 147.956C258.063 147.825 252.526 151.728 251.207 152.478C249.889 153.229 246.706 152.307 246.706 152.307L246.03 156.329C246.03 156.329 249.757 158.16 250.812 165.188C251.866 172.216 251.735 191.531 240.528 200.101C229.322 208.67 208.67 206.383 207.427 195.286C206.248 184.738 224.97 172.101 224.97 172.101L197.151 172.086Z" fill="#F2BB25"/>
<g style="mix-blend-mode:multiply" opacity="0.3">
<path d="M243.349 209.887C242.177 209.656 241.024 209.34 239.898 208.942C238.324 209.011 236.768 208.578 235.456 207.705C234.163 206.742 233.072 205.534 232.246 204.15C227.955 205.379 223.444 205.629 219.044 204.882C218.924 205.554 218.65 206.189 218.241 206.736C218.377 207.323 218.39 207.932 218.278 208.525C219.152 209.01 220.092 209.365 221.068 209.577C224.59 210.3 228.011 211.275 231.513 212.077C232.059 212.202 232.606 212.318 233.153 212.43H243.826C245.076 212.43 246.247 211.819 246.962 210.793L247.179 210.484C245.893 210.327 244.613 210.14 243.349 209.887Z" fill="#F2BB25"/>
</g>
<g style="mix-blend-mode:multiply" opacity="0.3">
<path d="M204.672 172.092C206.442 174.085 208.088 176.185 209.6 178.381C210.579 179.767 211.852 181.619 212.809 182.91C216.424 178.841 220.508 175.214 224.976 172.105L204.672 172.092Z" fill="#F2BB25"/>
</g>
<path d="M251.415 155.896C253.656 154.853 254.974 144.997 254.974 144.997L257.061 144.683C258.21 144.51 259.125 143.63 259.342 142.489C259.686 140.68 260.038 138.171 259.46 137.674C258.537 136.884 254.45 135.767 254.319 136.589C254.187 137.411 253.132 143.079 253.396 144.266C253.66 145.453 251.77 154.137 250.276 154.477C248.782 154.817 249.77 156.663 251.415 155.896Z" fill="#F2BB25"/>
<path d="M225.005 173.537H197.916C196.86 173.537 196.004 172.681 196.004 171.625C196.004 170.57 196.86 169.714 197.916 169.714H225.005C226.061 169.714 226.917 170.57 226.917 171.625C226.917 172.681 226.061 173.537 225.005 173.537Z" fill="#633E2F"/>
<g style="mix-blend-mode:multiply" opacity="0.3">
<path d="M196.024 171.822C196.123 172.794 196.939 173.534 197.916 173.536H225.005C225.981 173.534 226.798 172.794 226.896 171.822H196.024Z" fill="#633E2F"/>
</g>
<path d="M166.167 193.248C166.167 192.119 167.082 191.204 168.21 191.204H170.847C171.976 191.204 172.891 192.119 172.891 193.248C172.891 194.376 171.976 195.291 170.847 195.291H168.21C167.082 195.291 166.167 194.376 166.167 193.248Z" fill="#633E2F"/>
<path d="M167.829 208.673C167.241 208.673 166.764 208.196 166.764 207.608V202.109C166.764 201.521 167.241 201.044 167.829 201.044C168.417 201.044 168.894 201.521 168.894 202.109V207.608C168.894 208.196 168.417 208.673 167.829 208.673Z" fill="#633E2F"/>
<path d="M152.456 141.608C152.456 139.253 154.365 137.345 156.719 137.345H189.131C191.485 137.345 193.394 139.253 193.394 141.608V169.273C193.394 171.627 191.485 173.536 189.131 173.536H156.719C154.365 173.536 152.456 171.627 152.456 169.273V141.608Z" fill="#F2BB25"/>
<path d="M193.394 141.234V139.422C193.394 138.275 192.464 137.345 191.317 137.345H154.533C153.982 137.345 153.454 137.563 153.064 137.953C152.675 138.342 152.456 138.871 152.456 139.422V141.234H193.394Z" fill="#F5D798"/>
<g style="mix-blend-mode:multiply" opacity="0.2">
<path d="M153.25 173.082C153.615 173.375 154.067 173.535 154.534 173.537H191.319C191.87 173.537 192.398 173.318 192.787 172.929C193.177 172.539 193.396 172.011 193.395 171.46V147.562C180.737 157.157 167.31 165.693 153.25 173.082Z" fill="#E8BD61"/>
</g>
<rect x="179.127" y="137.345" width="4.15276" height="36.1911" fill="#072130"/>
<rect x="165.635" y="137.345" width="4.15276" height="36.1911" fill="#072130"/>
<ellipse cx="185.773" cy="209.426" rx="7.07614" ry="7.07613" fill="#7098B3"/>
<path d="M183.887 209.427C183.887 208.385 184.732 207.541 185.773 207.541C186.273 207.541 186.753 207.74 187.106 208.093C187.46 208.447 187.658 208.927 187.658 209.427C187.658 210.468 186.814 211.312 185.773 211.313C184.732 211.313 183.887 210.468 183.887 209.427Z" fill="#0E4161"/>
<ellipse cx="264.024" cy="209.426" rx="7.07614" ry="7.07613" fill="#7098B3"/>
<path d="M262.139 209.427C262.138 208.927 262.337 208.447 262.691 208.093C263.044 207.739 263.524 207.541 264.024 207.541C264.525 207.541 265.004 207.74 265.358 208.093C265.711 208.447 265.91 208.927 265.909 209.427C265.91 209.927 265.711 210.407 265.358 210.76C265.004 211.114 264.525 211.313 264.024 211.313C263.524 211.313 263.045 211.114 262.691 210.76C262.337 210.407 262.139 209.927 262.139 209.427Z" fill="#0E4161"/>
<g style="mix-blend-mode:multiply" opacity="0.2">
<path d="M191.682 209.118C194.362 210.199 196.967 211.456 199.482 212.879C199.766 211.751 199.909 210.592 199.909 209.428C199.909 201.621 193.58 195.292 185.773 195.292C178.694 195.293 172.707 200.531 171.766 207.548C178.181 205.828 185.704 206.685 191.682 209.118Z" fill="#633E2F"/>
</g>
<g style="mix-blend-mode:multiply" opacity="0.2">
<path d="M264.917 202.551C267.746 201.201 270.662 200.04 273.644 199.075C271.033 196.639 267.594 195.287 264.024 195.291C260.275 195.291 256.679 196.78 254.028 199.431C251.377 202.083 249.888 205.678 249.888 209.427C249.888 211.017 250.156 212.596 250.681 214.096C254.135 209.039 259.468 205.107 264.917 202.551Z" fill="#633E2F"/>
</g>
<path d="M209.413 159.521C209.413 159.521 237.917 162.264 241.2 166.351C244.483 170.439 236.77 199.774 236.77 199.774C236.77 199.774 226.588 199.84 225.713 197.862C224.838 195.885 238.023 180.987 236.77 176.503C235.518 172.02 210.863 164.374 210.731 164.176C210.599 163.978 209.413 159.521 209.413 159.521Z" fill="#072130"/>
<path d="M227.683 124.094C227.647 125.32 226.52 126.618 225.135 129.089C223.75 131.561 215.148 126.521 218.806 124.687C220.386 123.865 221.474 122.335 221.733 120.574C221.944 119.473 222.051 118.356 222.054 117.235C222.073 116.42 222.073 115.626 222.105 114.886C222.105 114.886 227.354 116.93 227.679 117.176C228.003 117.422 227.719 122.868 227.683 124.094Z" fill="#FE9D77"/>
<path d="M224.568 122.7C224.946 124.161 225.625 125.528 226.56 126.713C227.145 125.947 227.531 125.048 227.683 124.096C227.718 122.87 228.004 117.421 227.683 117.174C227.461 117.003 224.882 115.97 223.312 115.354C223.52 117.835 223.94 120.292 224.568 122.7Z" fill="#E8825A"/>
<path d="M242.823 155.619C242.842 155.165 243.44 154.461 243.601 154.174C243.642 154.091 243.696 154.016 243.762 153.95C243.901 153.863 244.071 153.839 244.228 153.885C244.386 153.931 244.517 154.043 244.587 154.191C244.714 154.497 244.746 154.834 244.68 155.159C244.666 155.542 244.372 155.857 243.99 155.897C243.632 155.955 243.267 155.951 242.911 155.885C242.845 155.813 242.812 155.716 242.823 155.619Z" fill="#E8825A"/>
<path d="M226.082 199.448L223.388 204.915L218.905 204.454L222.479 192.898L226.082 199.448Z" fill="#FE9D77"/>
<path d="M230.205 178.02C227.472 180.921 218.502 193.181 217.779 196.741C220.879 197.137 220.141 199.51 222.158 200.432C223.321 200.983 224.624 201.167 225.894 200.96C225.894 200.96 240.776 182.632 241.183 175.25C241.644 166.878 229.452 164.257 223.233 162.527C216.847 160.755 203.08 159.938 203.08 159.938C203.08 159.938 201.12 169.054 202.289 170.241C203.209 171.175 206.791 171.913 207.979 172.297C210.813 173.214 213.677 174.03 216.553 174.816C219.462 175.613 222.382 176.375 225.321 177.057L230.205 178.02Z" fill="#0E4161"/>
<path d="M224.97 174.393H219.166C219.057 174.393 218.968 174.304 218.968 174.195C218.969 174.087 219.057 173.998 219.166 173.998H224.967C225.076 173.998 225.164 174.086 225.164 174.195C225.164 174.303 225.078 174.391 224.97 174.393Z" fill="#072130"/>
<path d="M220.988 196.809C220.881 196.809 220.794 196.724 220.791 196.617C220.824 195.972 221.012 195.344 221.337 194.787L224.933 187.429C224.982 187.331 225.1 187.291 225.198 187.338C225.297 187.386 225.337 187.505 225.29 187.603L221.693 194.961C221.397 195.462 221.223 196.026 221.187 196.606C221.188 196.659 221.169 196.709 221.133 196.747C221.097 196.785 221.047 196.808 220.995 196.809H220.988Z" fill="#072130"/>
<path d="M218.178 203.465C218.178 203.465 223.586 204.652 224.575 203.465C224.773 204.519 227.08 205.904 229.321 206.033C231.563 206.162 231.102 208.67 231.102 208.67H216.796C216.796 208.67 216.796 206.56 217.389 205.769C217.807 205.063 218.075 204.279 218.178 203.465Z" fill="#633E2F"/>
<path d="M231.006 207.264C229.24 207.484 227.459 207.555 225.681 207.475C225.537 207.467 225.391 207.453 225.246 207.444C224.833 207.553 224.403 207.584 223.979 207.536C222.549 207.361 221.119 207.356 219.683 207.275C219.054 207.239 218.424 207.199 217.793 207.167C217.59 207.157 217.388 207.163 217.186 207.184C217.094 207.207 217.001 207.224 216.908 207.236C216.838 207.712 216.8 208.191 216.793 208.672H231.099C231.171 208.202 231.139 207.721 231.006 207.264Z" fill="#452B21"/>
<path d="M229.816 139.059C230.244 141.102 230.433 143.08 232.58 144.728C235.696 146.905 238.945 148.887 242.308 150.661C242.637 150.661 245.7 148.749 246.706 149.145C247.712 149.541 249.295 150.858 249.493 151.518C249.69 152.177 249.181 153.232 248.809 152.968C248.438 152.704 248.137 150.727 246.705 150.595C245.273 150.463 244.693 153.1 243.763 153.564C242.833 154.028 241.779 154.619 235.648 151.85C229.516 149.081 223.8 146.181 223.263 139.653C222.727 133.125 229.816 139.059 229.816 139.059Z" fill="#E8825A"/>
<path d="M222.4 107.878C220.971 110.305 222.218 117.503 223.604 119.348C224.56 120.553 225.741 121.562 227.081 122.317C227.967 122.926 229.048 123.183 230.113 123.04C231.217 122.661 231.516 119.395 231.779 118.669C232.042 117.944 232.618 118.293 233.409 117.963C234.2 117.633 232.618 115.063 232.687 113.876C232.756 112.689 234.005 112.163 233.478 109.195C232.951 106.228 225.696 102.274 222.4 107.878Z" fill="#FE9D77"/>
<path d="M231.327 119.712C230.877 119.712 230.44 119.56 230.087 119.28C230.045 119.248 230.019 119.201 230.013 119.148C230.006 119.096 230.021 119.044 230.054 119.003C230.122 118.917 230.246 118.903 230.332 118.971C230.626 119.199 230.988 119.322 231.36 119.317C231.469 119.316 231.559 119.402 231.562 119.511C231.564 119.62 231.478 119.71 231.368 119.713L231.327 119.712Z" fill="#D17551"/>
<path d="M223.462 118.294C223.285 118.798 223.062 119.284 222.795 119.747C222.694 119.964 222.535 120.15 222.337 120.284C222.211 120.37 221.768 120.415 221.734 120.574C221.945 119.473 222.052 118.354 222.055 117.232C222.144 117.157 222.229 117.077 222.308 116.991C222.501 116.788 222.565 115.97 222.89 116.028C223.107 116.069 223.499 117.292 223.527 117.468C223.569 117.745 223.546 118.027 223.462 118.294Z" fill="#E8825A"/>
<path d="M231.228 113.718C231.324 114.12 231.204 114.487 230.96 114.546C230.716 114.604 230.441 114.33 230.345 113.932C230.249 113.534 230.368 113.163 230.612 113.104C230.856 113.046 231.131 113.324 231.228 113.718Z" fill="#452B21"/>
<path d="M231.954 111.349C232.218 111.385 232.606 111.503 232.579 111.781C232.544 112.156 231.586 112.062 231.319 112.134C231.083 112.197 229.775 112.765 229.816 112.31C229.86 111.839 231.485 111.327 231.816 111.337C231.855 111.339 231.902 111.343 231.954 111.349Z" fill="#452B21"/>
<path d="M220.042 118.259C219.893 119.347 221.442 119.657 222.316 119.124C224.301 117.913 223.156 115.512 223.305 114.63C223.453 113.747 223.875 113.702 224.301 113.22C224.441 113.059 225.134 112.923 225.401 113.831C225.619 114.573 225.628 115.148 226.271 114.954C226.915 114.76 226.497 113.439 227.09 112.49C227.683 111.542 229.93 109.663 231.561 109.515C233.193 109.366 234.638 110.108 233.99 108.675C233.341 107.241 230.177 102.89 225.825 104.373C221.474 105.857 218.815 108.11 218.963 109.991C219.042 111.325 219.38 112.631 219.958 113.836C220.464 114.891 220.906 115.933 220.75 116.614C220.598 117.195 220.359 117.75 220.042 118.259Z" fill="#633E2F"/>
<path d="M218.969 111.721C218.969 111.721 230.874 110.992 231.764 110.745C232.654 110.499 237.361 110.854 238.389 110.567C239.382 110.29 240.366 109.113 238.785 108.57C237.209 108.106 235.611 107.726 233.995 107.433C233.995 107.433 231.368 103.082 226.623 103.032C221.877 102.982 220.09 105.256 219.561 106.353C218.829 107.872 218.567 110.667 218.969 111.721Z" fill="#E04428"/>
<path d="M242.822 160.878C242.822 160.878 244.001 154.393 244.341 152.988C244.68 151.582 245.369 150.594 246.706 150.594C247.306 150.61 247.873 150.874 248.272 151.324C248.671 151.774 248.865 152.368 248.81 152.967C248.636 154.022 246.576 160.482 245.826 161.536C245.077 162.591 242.591 162.14 242.822 160.878Z" fill="#543428"/>
<path d="M246.014 160.88C246.013 160.416 245.77 159.986 245.372 159.747C245.037 159.545 244.638 159.475 244.253 159.55C244.015 159.603 243.783 159.684 243.563 159.791C242.956 160.063 242.929 160.272 242.818 160.877C242.587 162.138 245.072 162.591 245.822 161.536C245.898 161.422 245.966 161.303 246.025 161.18C246.023 161.082 246.014 160.981 246.014 160.88Z" fill="#452B21"/>
<path d="M232.07 110.369C232.009 110.369 231.951 110.341 231.914 110.293C231.881 110.252 231.867 110.199 231.873 110.147C231.879 110.095 231.906 110.048 231.948 110.016C232.327 109.738 232.679 109.424 232.997 109.077C233.298 108.748 233.494 108.336 233.559 107.894C233.564 107.841 233.59 107.793 233.631 107.76C233.672 107.727 233.725 107.712 233.777 107.718C233.829 107.724 233.877 107.75 233.91 107.791C233.943 107.832 233.958 107.884 233.952 107.936C233.878 108.458 233.649 108.944 233.295 109.334C232.96 109.701 232.589 110.034 232.188 110.327C232.154 110.354 232.113 110.369 232.07 110.369Z" fill="#633E2F"/>
<path d="M201.238 165.098C201.725 165.728 206.842 162.922 208.226 161.999C209.61 161.077 214.887 160.219 217.324 161.208C220.225 161.011 222.268 157.977 222.73 156.527C223.192 155.077 222.418 146.704 223.266 145.65C224.114 144.596 225.63 135.959 225.63 132.4C225.63 128.84 227.343 129.63 226.817 127.455C226.29 125.279 223.848 121.06 220.156 121.984C216.465 122.907 214.553 124.885 210.73 130.751C206.906 136.618 206.445 138.002 205.389 141.365C204.334 144.727 204.994 149.21 202.951 152.505C200.908 155.801 200.117 163.648 201.238 165.098Z" fill="#E04428"/>
<g style="mix-blend-mode:multiply" opacity="0.3">
<path d="M224.074 131.055C223.608 130.533 223.139 130.012 222.642 129.522C222.436 129.318 222.228 129.116 222.013 128.922L221.946 128.861C221.877 128.815 221.529 128.531 221.431 128.466C221.299 128.38 221.16 128.306 221.024 128.226C220.923 128.578 220.822 128.932 220.723 129.29C220.186 131.693 219.784 134.126 219.52 136.574C218.749 141.465 217.871 146.012 215.165 150.264C213.937 152.19 212.39 154.014 211.456 156.116C211.103 156.981 210.859 157.887 210.729 158.812C210.904 158.792 211.081 158.783 211.258 158.786C212.556 158.81 213.831 159.13 214.987 159.72C215.369 159.924 215.728 160.168 216.057 160.449C216.31 160.645 216.55 160.823 216.772 161.032C216.959 161.08 217.143 161.139 217.323 161.21C220.224 161.013 222.267 157.979 222.729 156.529C223.19 155.079 222.416 146.706 223.265 145.652C224.113 144.597 225.63 135.961 225.63 132.402C225.63 132.308 225.63 132.219 225.63 132.132C225.036 131.896 224.504 131.528 224.074 131.055Z" fill="#E04428"/>
</g>
<path d="M217.188 144.992C217.98 145.784 227.406 142.685 229.386 140.579C229.386 140.579 225.431 136.294 222.661 138.139C219.892 139.985 217.188 144.992 217.188 144.992Z" fill="#C43C23"/>
<path d="M219.835 140.963C219.835 140.963 222.908 148.815 224.697 151.123C226.487 153.43 238.699 156.528 239.613 157.253C240.527 157.979 241.12 159.495 242.176 159.56C243.231 159.626 245.207 158.044 246.065 158.437C246.923 158.83 246.263 160.283 246.527 160.348C246.791 160.414 248.108 159.03 248.372 158.437C248.636 157.844 249.361 155.01 248.043 154.811C246.726 154.613 244.219 154.284 243.098 155.075C241.847 154.352 233.272 149.208 231.197 146.768C229.122 144.329 228.228 137.342 228.228 137.342L219.835 140.963Z" fill="#FE9D77"/>
<path d="M223.877 144.393C225.012 143.109 226.487 142.409 227.535 141.243C227.93 140.804 228.308 140.409 228.693 140.044C228.376 138.504 228.227 137.345 228.227 137.345L219.835 140.963C219.835 140.963 220.988 143.908 222.293 146.721C222.721 145.881 223.253 145.099 223.877 144.393Z" fill="#E8825A"/>
<path d="M230.206 139.52L228.742 140.286L223.979 126.731C223.979 126.731 225.965 124.867 226.814 127.453C227.663 130.039 230.206 139.52 230.206 139.52Z" fill="#C43C23"/>
<path d="M247.187 158.987C247.136 158.987 247.089 158.961 247.062 158.918C246.948 158.703 246.893 158.462 246.901 158.219L246.894 158.085C246.883 157.925 246.836 157.633 246.643 157.541C246.607 157.524 246.58 157.493 246.567 157.456C246.554 157.419 246.556 157.379 246.573 157.343C246.59 157.308 246.62 157.28 246.657 157.267C246.694 157.254 246.735 157.256 246.771 157.273C247.046 157.439 247.208 157.744 247.191 158.065L247.198 158.205C247.189 158.396 247.229 158.587 247.313 158.759C247.357 158.828 247.336 158.919 247.267 158.963C247.243 158.979 247.216 158.987 247.187 158.987Z" fill="#D17551"/>
<path d="M247.836 158.126H247.826C247.786 158.124 247.749 158.105 247.723 158.075C247.697 158.045 247.684 158.006 247.687 157.966C247.717 157.396 247.484 156.845 247.056 156.468C247.026 156.443 247.007 156.406 247.004 156.367C247.001 156.328 247.014 156.289 247.04 156.26C247.065 156.23 247.102 156.211 247.141 156.208C247.18 156.206 247.219 156.219 247.248 156.244C247.746 156.682 248.017 157.323 247.983 157.985C247.979 158.064 247.914 158.125 247.836 158.126Z" fill="#D17551"/>
<path d="M248.31 156.478H248.299C248.259 156.475 248.222 156.456 248.197 156.426C248.171 156.396 248.158 156.357 248.161 156.318C248.17 156.138 248.104 155.962 247.98 155.832C247.862 155.696 247.693 155.615 247.513 155.607C247.474 155.606 247.436 155.59 247.409 155.562C247.382 155.534 247.367 155.496 247.368 155.457C247.375 155.377 247.439 155.315 247.519 155.311C247.78 155.32 248.026 155.436 248.2 155.632C248.379 155.822 248.472 156.078 248.458 156.339C248.453 156.418 248.388 156.478 248.31 156.478Z" fill="#D17551"/>
<path d="M216.105 160.136C216.065 160.136 216.026 160.124 215.993 160.102C214.384 159.002 212.222 158.953 210.486 158.915C209.468 158.774 208.432 158.984 207.55 159.51C207.463 159.577 207.339 159.561 207.272 159.476C207.205 159.39 207.22 159.266 207.306 159.198C208.258 158.609 209.385 158.369 210.495 158.519C212.283 158.559 214.507 158.61 216.216 159.776C216.306 159.838 216.329 159.96 216.268 160.05C216.231 160.104 216.17 160.136 216.105 160.136Z" fill="#633E2F"/>
<path d="M217.783 154.675C217.7 154.674 217.625 154.622 217.597 154.544C217.56 154.441 217.613 154.327 217.716 154.29C218.174 154.093 218.599 153.825 218.973 153.495C220.175 152.663 221.205 151.607 222.007 150.385C222.033 150.339 222.075 150.305 222.126 150.291C222.176 150.276 222.23 150.283 222.276 150.308C222.322 150.333 222.357 150.376 222.372 150.426C222.387 150.477 222.382 150.532 222.356 150.578C221.531 151.847 220.466 152.943 219.222 153.805C218.814 154.162 218.352 154.452 217.853 154.662C217.83 154.671 217.807 154.675 217.783 154.675Z" fill="#633E2F"/>
<path d="M203.761 158.622C203.74 158.622 203.72 158.619 203.7 158.612C203.596 158.578 203.539 158.467 203.573 158.363C204.223 156.375 204.72 154.34 205.062 152.277C205.071 152.225 205.1 152.179 205.142 152.149C205.185 152.119 205.238 152.107 205.29 152.116C205.397 152.135 205.468 152.237 205.45 152.344C205.105 154.427 204.603 156.481 203.947 158.489C203.92 158.568 203.845 158.621 203.761 158.622Z" fill="#633E2F"/>
<path d="M216.664 132.071C216.653 132.268 216.994 144.859 217.191 144.99C217.388 145.121 221.542 141.496 224.047 141.167C226.551 140.838 229.387 140.574 229.387 140.574C229.387 140.574 228.314 130.573 226.819 127.456C225.324 124.338 217.257 121.984 216.664 132.071Z" fill="#E04428"/>
<path d="M220.092 142.157C220.003 142.157 219.925 142.097 219.902 142.01C219.895 141.986 219.236 139.538 218.843 137.379C218.834 137.328 218.846 137.274 218.876 137.231C218.906 137.188 218.952 137.159 219.004 137.15C219.056 137.14 219.109 137.152 219.153 137.182C219.196 137.212 219.225 137.258 219.234 137.31C219.623 139.453 220.277 141.884 220.285 141.909C220.312 142.014 220.25 142.121 220.146 142.15C220.128 142.155 220.11 142.157 220.092 142.157Z" fill="#633E2F"/>
<path d="M217.191 145.189C217.093 145.189 217.01 145.117 216.995 145.02C216.98 144.914 215.502 134.339 217.186 128.314C217.216 128.21 217.323 128.149 217.427 128.176C217.53 128.206 217.591 128.313 217.563 128.417C215.902 134.362 217.368 144.856 217.384 144.962C217.391 145.014 217.378 145.066 217.346 145.108C217.315 145.15 217.268 145.178 217.216 145.185L217.191 145.189Z" fill="#633E2F"/>
<path d="M190.204 179.247C190.168 179.247 190.131 179.244 190.096 179.238L162.43 174.12C162.129 174.063 161.921 173.787 161.949 173.482C161.977 173.176 162.233 172.942 162.539 172.942H195.616C195.773 172.942 195.924 173.005 196.035 173.116C196.147 173.227 196.209 173.378 196.209 173.535C196.209 173.863 195.944 174.128 195.616 174.128H184.01L190.517 178.149C190.761 178.3 190.863 178.604 190.757 178.871C190.669 179.098 190.449 179.247 190.206 179.247H190.204Z" fill="#0E4161"/>
<path d="M245.821 208.87H202.296C202.187 208.87 202.099 208.782 202.098 208.673C202.098 208.564 202.187 208.476 202.296 208.476H245.821C245.874 208.475 245.924 208.496 245.961 208.533C245.999 208.57 246.02 208.62 246.02 208.673C246.02 208.725 245.999 208.776 245.961 208.813C245.924 208.85 245.874 208.871 245.821 208.87Z" fill="#633E2F"/>
<path d="M166.035 202.773C166.02 196.777 171.705 189.885 177.506 185.666C183.307 181.446 196.392 180.392 200.727 186.193C205.062 191.994 205.622 206.761 200.727 208.672C194.118 205.703 186.604 202.871 178.429 202.773C170.255 202.674 166.039 204.36 166.035 202.773Z" fill="#E04428"/>
<path d="M247.918 209.426C247.918 209.426 257.539 200.432 265.451 198.914C273.362 197.395 275.603 196.944 276.658 196.775C277.713 196.607 272.043 184.345 261.495 186.454C250.948 188.563 247.126 200.621 247.918 209.426Z" fill="#E04428"/>
<path d="M259.645 159.521C259.571 159.522 259.502 159.48 259.469 159.413C257.976 156.455 258.655 150.059 258.685 149.788C258.69 149.736 258.716 149.688 258.757 149.655C258.798 149.622 258.85 149.607 258.902 149.613C259.011 149.624 259.09 149.722 259.078 149.831C259.071 149.896 258.382 156.381 259.822 159.235C259.846 159.282 259.85 159.336 259.833 159.386C259.817 159.436 259.781 159.477 259.735 159.501C259.707 159.515 259.676 159.522 259.645 159.521Z" fill="#633E2F"/>
<path d="M250.807 156.355C250.5 156.35 250.201 156.264 249.938 156.105C249.844 156.051 249.811 155.93 249.866 155.835C249.892 155.79 249.935 155.757 249.986 155.743C250.037 155.73 250.091 155.737 250.136 155.763C250.471 155.982 250.892 156.019 251.26 155.862C251.882 155.588 252.769 154.604 253.466 151.472C253.491 151.366 253.595 151.3 253.702 151.322C253.753 151.333 253.797 151.364 253.826 151.408C253.854 151.453 253.863 151.506 253.852 151.558C253.263 154.206 252.445 155.773 251.419 156.225C251.226 156.31 251.018 156.354 250.807 156.355Z" fill="#633E2F"/>
<path d="M220.307 116.804C220.23 116.804 220.161 116.76 220.128 116.691C220.077 116.578 220.05 116.457 220.048 116.333C220.061 115.878 220.168 115.431 220.362 115.019C220.576 114.61 220.665 114.147 220.618 113.687C220.57 113.509 220.502 113.337 220.416 113.173L220.052 112.416C220.03 112.368 220.026 112.314 220.044 112.264C220.061 112.215 220.097 112.174 220.145 112.152C220.192 112.129 220.246 112.126 220.296 112.143C220.345 112.16 220.386 112.197 220.409 112.244L220.773 113.002C220.873 113.193 220.951 113.394 221.005 113.602C221.073 114.138 220.978 114.682 220.731 115.163C220.558 115.525 220.46 115.918 220.443 116.319C220.443 116.388 220.456 116.458 220.483 116.522C220.506 116.569 220.509 116.624 220.492 116.673C220.474 116.723 220.438 116.763 220.39 116.786C220.364 116.798 220.336 116.804 220.307 116.804Z" fill="#452B21"/>
<path d="M233.06 115.509C233.574 115.219 233.913 117.002 233.76 117.766C233.409 119.513 231.192 122.841 230.209 123.336C229.226 123.832 225.208 121.899 224.694 120.574C224.18 119.249 227.699 115.354 227.699 115.354C227.699 115.354 232.009 116.103 233.06 115.509Z" fill="white"/>
<path d="M227.698 115.353C227.162 115.294 224.643 113.102 224.643 113.102C224.643 113.102 224.471 113.083 224.987 113.829C225.503 114.574 227.363 115.71 226.918 116.275C226.472 116.839 227.698 115.353 227.698 115.353Z" fill="white"/>
<path d="M224.986 121.032C223.986 120.142 223.305 114.628 223.305 114.628C223.305 114.628 224.649 119.742 224.982 119.122C225.316 118.501 224.986 121.032 224.986 121.032Z" fill="white"/>
<path d="M223.18 114.973C223.315 115.504 223.598 115.985 223.996 116.361C225.153 117.289 225.497 115.345 225.503 114.575C225.532 113.976 225.31 113.392 224.891 112.962C224.755 112.83 224.587 112.735 224.404 112.685C223.175 112.38 222.95 114.188 223.18 114.973Z" fill="#FE9D77"/>
<g style="mix-blend-mode:multiply" opacity="0.3">
<path d="M233.444 117.35H233.438L230.562 117.262C230.452 117.258 230.367 117.167 230.37 117.058C230.381 116.953 230.468 116.871 230.574 116.866L233.449 116.954C233.558 116.958 233.644 117.049 233.641 117.158C233.637 117.264 233.55 117.349 233.444 117.35Z" fill="#D3E6F2"/>
</g>
<g style="mix-blend-mode:multiply" opacity="0.3">
<path d="M232.316 120.272C232.288 120.272 232.261 120.266 232.236 120.254L228.021 118.35C227.973 118.329 227.936 118.289 227.917 118.24C227.899 118.19 227.901 118.136 227.922 118.088C227.944 118.04 227.984 118.003 228.033 117.984C228.082 117.966 228.136 117.968 228.184 117.989L232.399 119.893C232.447 119.914 232.485 119.954 232.503 120.003C232.522 120.052 232.52 120.107 232.498 120.154C232.466 120.226 232.395 120.272 232.316 120.272Z" fill="#D3E6F2"/>
</g>
<g style="mix-blend-mode:multiply" opacity="0.3">
<path d="M230.374 122.519C230.334 122.519 230.295 122.507 230.262 122.484L227.721 120.737C227.631 120.675 227.609 120.553 227.671 120.463C227.7 120.42 227.746 120.39 227.797 120.38C227.849 120.371 227.902 120.382 227.945 120.411L230.486 122.158C230.529 122.188 230.559 122.234 230.568 122.285C230.578 122.337 230.567 122.39 230.537 122.433C230.5 122.487 230.439 122.519 230.374 122.519Z" fill="#D3E6F2"/>
</g>
<path d="M137.372 25.7908C136.934 25.9297 136.472 25.9778 136.015 25.932C135.558 25.9778 135.097 25.9297 134.659 25.7908C135.097 25.652 135.558 25.6039 136.015 25.6495C136.472 25.604 136.934 25.652 137.372 25.7908Z" fill="#ECECEC"/>
<path d="M142.796 25.7907C142.359 25.9297 141.897 25.9778 141.44 25.932C140.983 25.9778 140.522 25.9297 140.084 25.7907C140.522 25.652 140.983 25.6039 141.44 25.6495C141.897 25.604 142.359 25.652 142.796 25.7907Z" fill="#ECECEC"/>
<path d="M148.222 25.7907C147.784 25.9297 147.322 25.9778 146.865 25.932C146.408 25.9778 145.947 25.9297 145.509 25.7907C145.947 25.652 146.408 25.6039 146.865 25.6495C147.322 25.604 147.784 25.652 148.222 25.7907Z" fill="#ECECEC"/>
<path d="M153.646 25.7907C153.209 25.9297 152.747 25.9778 152.29 25.932C151.833 25.9778 151.372 25.9297 150.934 25.7907C151.372 25.652 151.833 25.6039 152.29 25.6495C152.747 25.6039 153.209 25.652 153.646 25.7907Z" fill="#ECECEC"/>
<path d="M159.071 25.7908C158.634 25.9297 158.172 25.9778 157.715 25.932C157.258 25.9778 156.797 25.9297 156.359 25.7908C156.797 25.652 157.258 25.6039 157.715 25.6495C158.172 25.604 158.633 25.652 159.071 25.7908Z" fill="#ECECEC"/>
<path d="M164.497 25.7907C164.059 25.9297 163.597 25.9778 163.14 25.932C162.683 25.9778 162.222 25.9297 161.784 25.7907C162.222 25.652 162.683 25.6039 163.14 25.6495C163.597 25.604 164.059 25.652 164.497 25.7907Z" fill="#ECECEC"/>
<path d="M152.553 25.7907C152.115 25.9297 151.653 25.9778 151.196 25.932C150.74 25.9778 150.278 25.9297 149.84 25.7907C150.278 25.652 150.74 25.6039 151.196 25.6495C151.653 25.604 152.115 25.652 152.553 25.7907Z" fill="#ECECEC"/>
<path d="M155.083 25.7908C154.645 25.9297 154.184 25.9778 153.727 25.932C153.27 25.9778 152.808 25.9297 152.371 25.7908C152.808 25.652 153.27 25.6039 153.727 25.6495C154.184 25.604 154.645 25.652 155.083 25.7908Z" fill="#ECECEC"/>
<path d="M157.613 25.7908C157.175 25.9296 156.714 25.9777 156.257 25.932C155.8 25.9778 155.338 25.9297 154.9 25.7908C155.338 25.652 155.8 25.6039 156.257 25.6495C156.714 25.604 157.175 25.6521 157.613 25.7908Z" fill="#ECECEC"/>
<path d="M160.143 25.7907C159.705 25.9297 159.244 25.9778 158.787 25.932C158.33 25.9778 157.868 25.9297 157.431 25.7907C157.868 25.652 158.33 25.6039 158.787 25.6495C159.244 25.604 159.705 25.652 160.143 25.7907Z" fill="#ECECEC"/>
<path d="M162.673 25.7907C162.236 25.9297 161.774 25.9778 161.317 25.932C160.86 25.9778 160.399 25.9297 159.961 25.7907C160.399 25.652 160.86 25.6039 161.317 25.6495C161.774 25.604 162.236 25.652 162.673 25.7907Z" fill="#ECECEC"/>
<path d="M165.204 25.7908C164.766 25.9297 164.304 25.9778 163.847 25.932C163.39 25.9778 162.929 25.9297 162.491 25.7908C162.929 25.652 163.39 25.6039 163.847 25.6495C164.304 25.604 164.766 25.652 165.204 25.7908Z" fill="#ECECEC"/>
<path d="M167.734 25.7908C167.296 25.9296 166.835 25.9777 166.378 25.932C165.921 25.9778 165.459 25.9297 165.021 25.7908C165.459 25.652 165.921 25.6039 166.378 25.6495C166.835 25.604 167.296 25.6521 167.734 25.7908Z" fill="#ECECEC"/>
<path d="M170.264 25.7907C169.826 25.9297 169.364 25.9778 168.907 25.932C168.45 25.9778 167.989 25.9297 167.551 25.7907C167.989 25.652 168.45 25.6039 168.907 25.6495C169.364 25.604 169.826 25.652 170.264 25.7907Z" fill="#ECECEC"/>
<path d="M172.794 25.7907C172.356 25.9297 171.895 25.9778 171.438 25.932C170.981 25.9778 170.519 25.9297 170.082 25.7907C170.519 25.652 170.981 25.6039 171.438 25.6495C171.895 25.604 172.356 25.652 172.794 25.7907Z" fill="#ECECEC"/>
<path d="M175.324 25.7908C174.886 25.9297 174.425 25.9778 173.968 25.932C173.511 25.9778 173.05 25.9297 172.612 25.7908C173.05 25.652 173.511 25.6039 173.968 25.6495C174.425 25.604 174.886 25.652 175.324 25.7908Z" fill="#ECECEC"/>
<path d="M177.855 25.7908C177.417 25.9296 176.956 25.9777 176.499 25.932C176.042 25.9778 175.58 25.9297 175.143 25.7908C175.58 25.652 176.042 25.6039 176.499 25.6495C176.956 25.604 177.417 25.6521 177.855 25.7908Z" fill="#ECECEC"/>
<path d="M180.385 25.7907C179.947 25.9297 179.486 25.9778 179.029 25.932C178.572 25.9778 178.111 25.9297 177.673 25.7907C178.111 25.652 178.572 25.6039 179.029 25.6495C179.486 25.604 179.947 25.652 180.385 25.7907Z" fill="#ECECEC"/>
<path d="M182.915 25.7907C182.478 25.9297 182.016 25.9778 181.559 25.932C181.102 25.9778 180.641 25.9297 180.203 25.7907C180.641 25.652 181.102 25.6039 181.559 25.6495C182.016 25.604 182.478 25.652 182.915 25.7907Z" fill="#ECECEC"/>
<path d="M185.446 25.7908C185.008 25.9297 184.547 25.9778 184.09 25.932C183.633 25.9778 183.171 25.9297 182.733 25.7908C183.171 25.652 183.633 25.6039 184.09 25.6495C184.547 25.604 185.008 25.652 185.446 25.7908Z" fill="#ECECEC"/>
<path d="M187.976 25.7908C187.538 25.9296 187.077 25.9777 186.62 25.932C186.163 25.9778 185.701 25.9297 185.264 25.7908C185.701 25.652 186.163 25.6039 186.62 25.6495C187.077 25.604 187.538 25.6521 187.976 25.7908Z" fill="#ECECEC"/>
<path d="M190.506 25.7907C190.068 25.9297 189.607 25.9778 189.15 25.932C188.693 25.9778 188.231 25.9297 187.793 25.7907C188.231 25.652 188.693 25.6039 189.15 25.6495C189.607 25.604 190.068 25.652 190.506 25.7907Z" fill="#ECECEC"/>
<path d="M193.036 25.7907C192.598 25.9297 192.137 25.9778 191.68 25.932C191.223 25.9778 190.761 25.9297 190.324 25.7907C190.761 25.652 191.223 25.6039 191.68 25.6495C192.137 25.6039 192.598 25.652 193.036 25.7907Z" fill="#ECECEC"/>
<path d="M193.254 29.8256C193.115 29.3878 193.067 28.9264 193.112 28.4694C193.067 28.0125 193.115 27.551 193.254 27.1133C193.393 27.551 193.441 28.0125 193.395 28.4694C193.441 28.9264 193.393 29.3879 193.254 29.8256Z" fill="#ECECEC"/>
<path d="M193.254 35.2504C193.115 34.8126 193.067 34.3512 193.112 33.8943C193.067 33.4373 193.115 32.9758 193.254 32.5381C193.393 32.9758 193.441 33.4373 193.395 33.8943C193.441 34.3512 193.393 34.8127 193.254 35.2504Z" fill="#ECECEC"/>
<path d="M193.254 40.6752C193.115 40.2375 193.067 39.776 193.112 39.3191C193.067 38.8621 193.115 38.4006 193.254 37.9629C193.393 38.4006 193.441 38.8621 193.395 39.3191C193.441 39.776 193.393 40.2375 193.254 40.6752Z" fill="#ECECEC"/>
<path d="M193.254 54.9408C193.115 54.5031 193.067 54.0416 193.112 53.5847C193.067 53.1277 193.115 52.6663 193.254 52.2285C193.393 52.6662 193.441 53.1277 193.395 53.5847C193.441 54.0416 193.393 54.5031 193.254 54.9408Z" fill="#ECECEC"/>
<path d="M193.254 63.0698C193.115 62.632 193.067 62.1705 193.112 61.7136C193.067 61.2566 193.115 60.7952 193.254 60.3574C193.393 60.7951 193.441 61.2566 193.395 61.7136C193.441 62.1705 193.393 62.632 193.254 63.0698Z" fill="#ECECEC"/>
<path d="M193.96 69.9899C193.622 70.1138 193.261 70.1609 192.902 70.1279H192.766V69.9867C192.766 69.8848 192.766 69.7877 192.766 69.6882C192.72 69.2312 192.768 68.7698 192.907 68.332C193.046 68.7697 193.094 69.2312 193.048 69.6882C193.048 69.7877 193.048 69.8848 193.048 69.9867L192.91 69.8487C193.266 69.8179 193.625 69.8661 193.96 69.9899Z" fill="#ECECEC"/>
<path d="M196.707 70.4784C196.27 70.6172 195.808 70.6652 195.351 70.6196C194.894 70.6652 194.433 70.6172 193.995 70.4784C194.433 70.3394 194.894 70.2913 195.351 70.3371C195.808 70.2913 196.27 70.3394 196.707 70.4784Z" fill="#ECECEC"/>
<path d="M199.238 70.4784C198.8 70.6172 198.339 70.6652 197.882 70.6196C197.425 70.6652 196.963 70.6171 196.525 70.4784C196.963 70.3394 197.425 70.2913 197.882 70.3371C198.339 70.2913 198.8 70.3394 199.238 70.4784Z" fill="#ECECEC"/>
<path d="M186.093 70.4784C185.655 70.6172 185.194 70.6652 184.737 70.6196C184.28 70.6652 183.819 70.6172 183.381 70.4784C183.819 70.3394 184.28 70.2913 184.737 70.3371C185.194 70.2913 185.655 70.3394 186.093 70.4784Z" fill="#ECECEC"/>
<path d="M191.518 70.4784C191.081 70.6172 190.619 70.6652 190.162 70.6196C189.705 70.6652 189.244 70.6171 188.806 70.4784C189.244 70.3394 189.705 70.2913 190.162 70.3371C190.619 70.2913 191.081 70.3394 191.518 70.4784Z" fill="#ECECEC"/>
<path d="M196.943 70.4784C196.506 70.6172 196.044 70.6652 195.587 70.6196C195.13 70.6652 194.669 70.6171 194.231 70.4784C194.669 70.3394 195.13 70.2913 195.587 70.3371C196.044 70.2913 196.506 70.3394 196.943 70.4784Z" fill="#ECECEC"/>
<path d="M202.368 70.4784C201.93 70.6172 201.469 70.6652 201.012 70.6196C200.555 70.6652 200.094 70.6171 199.656 70.4784C200.093 70.3394 200.555 70.2913 201.012 70.3371C201.469 70.2913 201.93 70.3394 202.368 70.4784Z" fill="#ECECEC"/>
<path d="M207.793 70.4784C207.356 70.6172 206.894 70.6652 206.437 70.6196C205.98 70.6652 205.519 70.6172 205.081 70.4784C205.519 70.3394 205.98 70.2913 206.437 70.3371C206.894 70.2913 207.356 70.3394 207.793 70.4784Z" fill="#ECECEC"/>
<path d="M213.218 70.4784C212.78 70.6171 212.319 70.6652 211.862 70.6196C211.405 70.6652 210.944 70.6171 210.506 70.4784C210.944 70.3394 211.405 70.2913 211.862 70.3371C212.319 70.2913 212.78 70.3394 213.218 70.4784Z" fill="#ECECEC"/>
<path d="M215.328 74.5815C215.189 74.1438 215.141 73.6823 215.186 73.2253C215.141 72.7683 215.189 72.3068 215.328 71.8691C215.467 72.3069 215.515 72.7683 215.469 73.2253C215.515 73.6823 215.467 74.1437 215.328 74.5815Z" fill="#ECECEC"/>
<path d="M215.328 82.7104C215.189 82.2727 215.141 81.8112 215.186 81.3542C215.141 80.8972 215.189 80.4357 215.328 79.998C215.467 80.4358 215.515 80.8973 215.469 81.3542C215.515 81.8112 215.467 82.2726 215.328 82.7104Z" fill="#ECECEC"/>
<path d="M215.328 90.8383C215.189 90.4007 215.141 89.9392 215.186 89.4821C215.141 89.0251 215.189 88.5636 215.328 88.126C215.467 88.5637 215.515 89.0252 215.469 89.4821C215.515 89.9391 215.467 90.4006 215.328 90.8383Z" fill="#ECECEC"/>
<path d="M215.328 98.9672C215.189 98.5296 215.141 98.0681 215.186 97.611C215.141 97.154 215.189 96.6925 215.328 96.2549C215.467 96.6926 215.515 97.1541 215.469 97.611C215.515 98.068 215.467 98.5295 215.328 98.9672Z" fill="#ECECEC"/>
<path d="M215.328 107.096C215.189 106.658 215.141 106.197 215.186 105.74C215.141 105.283 215.189 104.821 215.328 104.384C215.467 104.822 215.515 105.283 215.469 105.74C215.515 106.197 215.467 106.658 215.328 107.096Z" fill="#ECECEC"/>
<path d="M215.328 115.225C215.189 114.787 215.141 114.326 215.186 113.869C215.141 113.412 215.189 112.95 215.328 112.513C215.467 112.95 215.515 113.412 215.469 113.869C215.515 114.326 215.467 114.787 215.328 115.225Z" fill="#ECECEC"/>
<path d="M215.328 123.354C215.189 122.916 215.141 122.455 215.186 121.998C215.141 121.541 215.189 121.079 215.328 120.642C215.467 121.079 215.515 121.541 215.469 121.998C215.515 122.455 215.467 122.916 215.328 123.354Z" fill="#ECECEC"/>
<path d="M215.328 131.483C215.189 131.045 215.141 130.584 215.186 130.127C215.141 129.67 215.189 129.208 215.328 128.771C215.467 129.208 215.515 129.67 215.469 130.127C215.515 130.584 215.467 131.045 215.328 131.483Z" fill="#ECECEC"/>
<path d="M215.328 145.019C215.189 144.581 215.141 144.12 215.186 143.663C215.141 143.206 215.189 142.744 215.328 142.307C215.467 142.744 215.515 143.206 215.469 143.663C215.515 144.12 215.467 144.581 215.328 145.019Z" fill="#ECECEC"/>
<path d="M215.328 150.444C215.189 150.006 215.141 149.545 215.186 149.088C215.141 148.631 215.189 148.169 215.328 147.731C215.467 148.169 215.515 148.631 215.469 149.088C215.515 149.545 215.467 150.006 215.328 150.444Z" fill="#ECECEC"/>
<path d="M215.328 155.87C215.189 155.432 215.141 154.97 215.186 154.513C215.141 154.056 215.189 153.595 215.328 153.157C215.467 153.595 215.515 154.056 215.469 154.513C215.515 154.97 215.467 155.432 215.328 155.87Z" fill="#ECECEC"/>
<path d="M133.956 113.122C136.881 105.765 141.008 95.6364 145.605 84.4629C150.201 73.2894 154.352 63.1768 157.321 55.8374L160.825 47.1419L161.78 44.7786L162.035 44.1664C162.093 44.0283 162.129 43.9609 162.129 43.9609C162.129 43.9609 162.109 44.0356 162.058 44.1752L161.826 44.7971L160.913 47.1772C160.118 49.2436 158.945 52.2247 157.481 55.9024C154.556 63.2594 150.429 73.3873 145.834 84.5568C141.24 95.7263 137.088 105.848 134.118 113.187" fill="#E1E1E1"/>
<path d="M146.241 60.4023C146.335 60.5484 146.409 60.7056 146.463 60.8702C146.593 61.1775 146.767 61.6269 146.975 62.1838C147.39 63.2992 147.923 64.8552 148.478 66.5829L149.88 71.0125C150.049 71.5379 150.193 71.9843 150.311 72.3518C150.377 72.5123 150.423 72.6802 150.448 72.8518C150.354 72.706 150.278 72.5492 150.222 72.3847C150.094 72.0774 149.92 71.628 149.717 71.0679C149.315 69.9444 148.8 68.3853 148.246 66.6543L146.813 62.2408L146.375 60.9023C146.31 60.7417 146.265 60.5738 146.241 60.4023Z" fill="#E1E1E1"/>
<path d="M151.113 72.9294C151.09 72.866 154.247 71.6238 158.167 70.1569C162.086 68.69 165.283 67.5505 165.309 67.6139C165.334 67.6772 162.175 68.9187 158.255 70.3864C154.335 71.8541 151.137 72.9928 151.113 72.9294Z" fill="#E1E1E1"/>
<path d="M143.282 89.766C143.453 89.7217 143.629 89.6983 143.807 89.6962L145.239 89.5847C146.449 89.49 148.118 89.3536 149.955 89.1369C151.792 88.9203 153.451 88.6755 154.649 88.4877L156.069 88.2662C156.242 88.2278 156.418 88.21 156.595 88.2133C156.433 88.2828 156.262 88.3322 156.087 88.3601C155.756 88.4404 155.275 88.5439 154.678 88.6586C153.485 88.8914 151.828 89.1682 149.984 89.3809C148.14 89.5935 146.464 89.7067 145.249 89.7572C144.642 89.7797 144.15 89.7925 143.81 89.7909C143.633 89.8037 143.456 89.7953 143.282 89.766Z" fill="#E1E1E1"/>
<path d="M136.381 79.4062C136.502 79.5174 136.608 79.6436 136.696 79.7818C136.885 80.0322 137.153 80.3989 137.479 80.8563C138.132 81.7695 139.018 83.0406 139.985 84.4521C140.952 85.8637 141.816 87.1516 142.432 88.0905C142.739 88.56 142.985 88.9419 143.154 89.2084C143.251 89.3404 143.331 89.4848 143.39 89.6377C143.27 89.5268 143.164 89.4008 143.076 89.2629C142.886 89.0126 142.619 88.645 142.292 88.1884C141.641 87.2752 140.753 86.0041 139.786 84.5918C138.819 83.1794 137.956 81.8931 137.339 80.9542C137.032 80.4856 136.786 80.1036 136.617 79.8364C136.52 79.7039 136.441 79.5593 136.381 79.4062Z" fill="#E1E1E1"/>
<path d="M127.579 93.3936C127.728 93.54 127.861 93.7013 127.976 93.875L128.983 95.2489C129.825 96.4148 130.974 98.035 132.231 99.8333C133.488 101.632 134.614 103.269 135.42 104.46L136.364 105.877C136.489 106.046 136.597 106.226 136.685 106.417C136.536 106.27 136.404 106.109 136.288 105.935L135.281 104.561C134.439 103.395 133.29 101.775 132.034 99.9762C130.777 98.177 129.65 96.5416 128.845 95.35L127.901 93.932C127.775 93.764 127.668 93.5836 127.579 93.3936Z" fill="#E1E1E1"/>
<path d="M136.551 106.046C136.768 105.99 136.99 105.956 137.214 105.942L139.026 105.737C140.556 105.563 142.668 105.315 144.991 104.978C147.314 104.64 149.412 104.287 150.929 104.02L152.725 103.706C152.943 103.655 153.166 103.626 153.389 103.618C153.182 103.699 152.967 103.759 152.747 103.8C152.328 103.901 151.719 104.036 150.964 104.19C149.455 104.502 147.359 104.886 145.026 105.221C142.693 105.555 140.579 105.782 139.043 105.909C138.275 105.973 137.652 106.018 137.222 106.038C136.999 106.062 136.775 106.065 136.551 106.046Z" fill="#E1E1E1"/>
<path d="M28.717 224.464C28.4209 221.093 28.2692 221.026 27.0246 216.735C25.6286 212.1 23.9674 207.549 22.0493 203.104C21.5469 201.92 21.0513 200.751 20.5623 199.598C20.072 198.448 19.5849 197.308 19.0376 196.222C17.9876 194.139 16.8234 192.116 15.5501 190.162C14.3464 188.288 13.1379 186.551 11.9952 184.941C10.8525 183.33 9.74829 181.847 8.69386 180.539C7.03531 178.467 5.21467 176.529 3.24913 174.745C2.55499 174.113 2.00049 173.64 1.62092 173.326L1.18679 172.97C1.13898 172.928 1.08741 172.89 1.03271 172.856C1.07372 172.906 1.11941 172.951 1.16913 172.991L1.58722 173.367C1.95555 173.694 2.49882 174.179 3.18172 174.821C5.11467 176.63 6.90945 178.58 8.55102 180.657C9.59422 181.969 10.6824 183.453 11.8195 185.071C12.9566 186.689 14.1546 188.425 15.3503 190.297C16.6128 192.247 17.7679 194.265 18.8105 196.341C19.3506 197.421 19.8313 198.552 20.3224 199.704C20.8135 200.857 21.3062 202.026 21.8078 203.21C23.7204 207.646 25.3836 212.185 26.7895 216.807C28.0421 221.081 28.209 221.129 28.5276 224.484" fill="#1A2E35"/>
<path d="M18.9703 196.211C19.0383 196.016 19.0851 195.815 19.1099 195.61C19.1853 195.22 19.276 194.653 19.3771 193.951C19.5817 192.547 19.7984 190.597 20.0279 188.448C20.2574 186.298 20.5014 184.355 20.7269 182.96C20.8376 182.261 20.9323 181.696 21.0037 181.306C21.0525 181.105 21.0794 180.9 21.084 180.693C21.0028 180.883 20.9425 181.082 20.9042 181.285C20.8031 181.668 20.6795 182.23 20.5463 182.927C20.2735 184.32 19.9998 186.266 19.7703 188.419C19.548 190.54 19.3482 192.46 19.1949 193.927C19.1219 194.589 19.0593 195.147 19.0096 195.595C18.974 195.798 18.9608 196.005 18.9703 196.211Z" fill="#1A2E35"/>
<path d="M0.839355 192.756C1.07682 192.808 1.3186 192.838 1.56157 192.845C2.027 192.888 2.70108 192.947 3.53002 193.046C5.19113 193.232 7.47735 193.568 9.98265 194.049C12.4879 194.529 14.7373 195.071 16.3518 195.505C17.1615 195.717 17.8115 195.906 18.2617 196.033C18.4914 196.114 18.7284 196.173 18.9695 196.21C18.7527 196.098 18.5259 196.006 18.2922 195.936C17.85 195.775 17.2064 195.562 16.4008 195.326C14.7958 194.845 12.5433 194.277 10.0308 193.789C7.88723 193.37 5.72364 193.06 3.54848 192.861C2.71311 192.785 2.03583 192.754 1.56639 192.743C1.32419 192.724 1.08075 192.728 0.839355 192.756Z" fill="#1A2E35"/>
<path d="M26.8032 216.401C26.8551 216.333 26.8972 216.259 26.9284 216.18L27.2406 215.524C27.5094 214.955 27.8777 214.119 28.3183 213.081C29.201 211.005 30.3301 208.1 31.5281 204.877C32.7262 201.655 33.832 198.742 34.6698 196.651L35.6697 194.177L35.9377 193.502C35.9756 193.426 36.0026 193.345 36.0179 193.262C35.9665 193.33 35.9243 193.404 35.8928 193.483L35.5798 194.138C35.311 194.709 34.9434 195.544 34.5029 196.582C33.6202 198.657 32.4911 201.562 31.289 204.786C30.0869 208.009 28.9859 210.92 28.1482 213.011C27.7373 214.027 27.3987 214.864 27.1483 215.484L26.8795 216.159C26.8435 216.236 26.8179 216.317 26.8032 216.401Z" fill="#1A2E35"/>
<path d="M2.72021 208.546C2.79566 208.59 2.87663 208.623 2.96095 208.645L3.6607 208.886L6.23903 209.732C8.41692 210.447 11.4125 211.468 14.7211 212.602C18.0297 213.735 21.0397 214.73 23.2328 215.4C24.329 215.735 25.2181 215.998 25.8376 216.166L26.551 216.356C26.6329 216.384 26.7183 216.401 26.8046 216.405C26.7292 216.361 26.6483 216.328 26.5639 216.306L25.8649 216.065L23.2866 215.22C21.1087 214.506 18.1131 213.483 14.8021 212.35C11.4912 211.217 8.48513 210.222 6.296 209.552C5.19983 209.217 4.3099 208.955 3.6912 208.786L2.97781 208.596C2.89466 208.567 2.80797 208.55 2.72021 208.546Z" fill="#1A2E35"/>
<path d="M117.29 224.46H41.7898C32.5322 224.281 25.0934 216.777 24.9966 207.518L25.799 17.3657C25.8182 12.9831 27.5777 8.78753 30.6906 5.70236C33.8035 2.61719 38.0146 0.895162 42.3972 0.915212L118.245 1.26589C127.367 1.30834 134.729 8.73596 134.69 17.8584L133.888 208.01C133.869 212.393 132.109 216.588 128.996 219.674C125.883 222.759 121.672 224.48 117.29 224.46Z" fill="#1A2E35"/>
<path d="M118.138 8.48964L103.433 8.42143C101.416 8.45789 99.8106 10.1219 99.8464 12.1384L99.8343 14.8058C99.8701 16.8224 98.2647 18.4864 96.2481 18.5229L67.5832 18.3896C65.5671 18.3341 63.9766 16.6567 64.0283 14.6405L64.0395 11.9731C64.0916 9.95633 62.5006 8.27833 60.4838 8.22322L55.3119 8.19915L42.4404 8.13977C39.371 8.1259 36.4218 9.3321 34.2419 11.4929C32.0619 13.6538 30.8298 16.5922 30.8167 19.6616L30.0318 205.264C30.0047 211.652 35.1602 216.854 41.5488 216.884L117.245 217.233C120.315 217.247 123.264 216.041 125.444 213.88C127.624 211.719 128.857 208.781 128.87 205.711L129.655 20.1085C129.681 13.7205 124.526 8.51971 118.138 8.48964Z" fill="#F5F5F5"/>
<path d="M86.0112 182.16C85.9246 184.402 85.8427 186.503 85.7705 188.251H96.6439L95.3134 181.572L86.0112 182.16Z" fill="#F5F5F5"/>
<path d="M41.8208 184.954L41.9155 188.249H84.6869C84.7591 186.398 84.8394 184.345 84.9212 182.23L41.8208 184.954Z" fill="#F5F5F5"/>
<path d="M95.8628 181.538L97.2005 188.251H117.247L117.006 180.201L95.8628 181.538Z" fill="#F5F5F5"/>
<path d="M87.0977 87.6907L90.8886 65.7144L80.9604 64.9785V87.6883L87.0977 87.6907Z" fill="#F5F5F5"/>
<path d="M40.9269 172.756L30.1522 176.977L30.1201 184.609L41.2479 183.905L40.9269 172.756Z" fill="#F5F5F5"/>
<path d="M40.8774 171.038L40.2884 150.57H40.2804V143.348L30.2897 144.406L30.1597 175.221L40.8734 171.024L40.8774 171.038Z" fill="#F5F5F5"/>
<path d="M40.2804 127.238L30.3683 125.929L30.2969 142.773L40.2804 141.716V127.238Z" fill="#F5F5F5"/>
<path d="M114.16 143.657L113.743 149.523L102.036 150.786L102.942 155.427L116.232 154.426L116.032 147.77L117.092 143.362L114.16 143.657Z" fill="#F5F5F5"/>
<path d="M93.0606 156.172L102.397 155.468L100.364 145.05L92.2148 145.872L93.0606 156.172Z" fill="#F5F5F5"/>
<path d="M93.1499 157.253L93.8633 165.94L95.1296 177.855L95.6496 180.464L116.974 179.115L116.265 155.511L93.1499 157.253Z" fill="#F5F5F5"/>
<path d="M40.8231 127.237L57.2688 117.645L56.449 116.239L40.3826 125.61L30.3755 124.29L30.5033 94.1293L56.9322 89.3193H87.0249L88.1068 102.49L56.8044 105.5L56.9084 106.58L88.1956 103.572L90.2706 128.813L58.6605 124.684L58.4503 126.298L90.4071 130.471L91.632 145.385L58.1802 148.761L40.8231 149.99V127.237Z" fill="#F5F5F5"/>
<path d="M113.064 143.768L100.906 144.995L101.828 149.717L112.725 148.542L113.064 143.768Z" fill="#F5F5F5"/>
<path d="M86.1669 178.142C86.1291 179.126 86.0914 180.108 86.0537 181.071L95.1031 180.499L94.6385 178.166L86.1669 178.142Z" fill="#F5F5F5"/>
<path d="M66.674 87.6905L68.2701 80.4627H80.4178V64.9383L42.4299 62.124V76.7016L30.5646 79.385L30.5093 92.4724L56.7844 87.6905H66.674Z" fill="#F5F5F5"/>
<path d="M92.0226 44.4926L91.7016 43.1621L106.208 37.4213L96.7724 18.4831C96.6001 18.5099 96.4259 18.5236 96.2516 18.524L80.2207 18.4502L80.6572 44.9588L92.0226 44.4926Z" fill="#F5F5F5"/>
<path d="M114.006 34.3344L113.989 8.4718L103.432 8.42285C101.415 8.45931 99.81 10.1233 99.8457 12.1399L99.8337 14.8073C99.8376 16.0176 99.2603 17.1563 98.2817 17.8687L107.724 36.8221L114.006 34.3344Z" fill="#F5F5F5"/>
<path d="M38.9487 32.4975L43.8367 8.14648L55.312 8.19921L58.2493 8.21293L59.4728 35.4442L38.9487 32.4975Z" fill="#F5F5F5"/>
<path d="M60.0272 35.5239V35.7558C60.0528 37.8807 60.097 41.7052 60.1283 45.7962L80.1097 44.9801L79.6731 18.4466L67.5824 18.3904C65.5663 18.3349 63.9758 16.6575 64.0275 14.6413L64.0387 11.9739C64.0908 9.95712 62.4997 8.27913 60.483 8.22402L58.793 8.2168L60.0191 35.5231L60.0272 35.5239Z" fill="#F5F5F5"/>
<path d="M37.3375 32.2666L42.178 8.15332C35.8921 8.26406 30.8462 13.3763 30.8175 19.6631L30.7661 31.684L30.8175 31.3301L37.3375 32.2666Z" fill="#F5F5F5"/>
<path d="M40.8034 62.0037L30.645 61.251L30.5752 77.7151L40.8058 75.4008L40.8034 62.0037Z" fill="#F5F5F5"/>
<path d="M37.2306 32.7997L30.766 31.8721L30.6528 58.5331L32.0443 58.6367L37.2306 32.7997Z" fill="#F5F5F5"/>
<path d="M57.7541 170.728L57.925 149.323L40.8325 150.533L41.436 171.503L57.7541 170.728Z" fill="#F5F5F5"/>
<path d="M60.8974 165.788L85.1078 177.385C85.3959 169.807 85.6543 162.72 85.6294 162.268L86.1542 162.241L86.411 161.729C86.7552 161.901 86.7552 161.901 86.5715 167.067C86.4704 169.95 86.3307 173.786 86.1815 177.623H94.5544L93.3186 165.991L91.6711 145.93L60.0396 149.122L60.8974 165.788Z" fill="#F5F5F5"/>
<path d="M120.243 130.264L119.97 127.441L90.9502 130.459L92.1715 145.331L117.228 142.802L120.243 130.264Z" fill="#F5F5F5"/>
<path d="M80.417 82.0908H69.5764L68.3398 87.6904H80.417V82.0908Z" fill="#F5F5F5"/>
<path d="M87.5054 88.5166L88.6118 82.1025L115.761 83.981L117.281 99.6828L88.6479 102.436L87.5054 88.5166Z" fill="#F5F5F5"/>
<path d="M118.578 113.076L117.385 100.764L88.7373 103.519L89.8134 116.62L118.578 113.076Z" fill="#F5F5F5"/>
<path d="M41.2783 184.991L30.1634 185.694L30.1176 184.972L30.104 188.253H41.3722L41.2783 184.991Z" fill="#F5F5F5"/>
<path d="M129.456 28.2197L129.616 28.633L129.652 20.1092C129.679 13.7206 124.523 8.51914 118.135 8.48951L114.528 8.47266L114.545 34.1194L129.456 28.2197Z" fill="#F5F5F5"/>
<path d="M41.4598 172.546V172.537L41.4453 172.047L58.2889 171.245L58.4637 149.277L59.4993 149.173L60.3703 166.137L85.0868 177.976C85.0464 179.03 85.0067 180.091 84.9583 181.144L41.7855 183.873L41.4598 172.546Z" fill="#F5F5F5"/>
<path d="M122.432 56.7046L123.443 50.7077C114.581 47.5452 113.967 38.3033 113.994 35.5059L108.209 37.7953L116.919 55.2794L122.432 56.7046Z" fill="#F5F5F5"/>
<path d="M90.8162 128.838L102.865 127.585L100.491 116.944L89.9463 118.244L90.8162 128.838Z" fill="#F5F5F5"/>
<path d="M115.804 65.8968H93.2997L91.4323 65.7588L88.8901 80.4944L115.602 82.3401L114.982 75.9332L117.61 66.469L115.804 65.8968Z" fill="#F5F5F5"/>
<path d="M97.6902 63.1828L92.9756 43.8223L106.689 38.3955L115.533 56.1498L115.251 63.1835L97.6902 63.1828Z" fill="#F5F5F5"/>
<path d="M118.754 148.052L119.169 161.867L128.919 161.318L128.949 161.86L119.185 162.409L119.682 178.945L128.899 178.362L128.968 179.444L119.714 180.029L119.961 188.251H128.944L129.139 142.146L119.951 143.072L118.754 148.052Z" fill="#F5F5F5"/>
<path d="M59.4879 35.9946L38.8413 33.0303L33.6782 58.7565L59.5794 60.6744C59.6853 56.7142 59.5955 44.5657 59.4879 35.9946Z" fill="#F5F5F5"/>
<path d="M93.4509 63.1836H96.5749L92.1541 45.0303L80.6636 45.4997L80.9396 62.2568L93.4509 63.1836Z" fill="#F5F5F5"/>
<path d="M30.0488 201.458L30.0327 205.265C30.0327 205.383 30.0456 205.497 30.0488 205.613V201.458Z" fill="#F5F5F5"/>
<path d="M60.1108 60.7144L80.3948 62.2167L80.1203 45.5254L60.1389 46.3415C60.1782 51.9844 60.1959 58.0069 60.1108 60.7144Z" fill="#F5F5F5"/>
<path d="M118.736 114.696L101.032 116.877L103.409 127.528L119.813 125.822L118.736 114.696Z" fill="#F5F5F5"/>
<path d="M123.535 50.1632L124.669 43.4338L129.555 43.8141L129.616 29.3232L114.543 35.2888C114.236 45.4857 120.641 49.0711 123.535 50.1632Z" fill="#F5F5F5"/>
<path d="M117.73 76.1744L118.345 82.5307L129.388 83.2947L129.444 70.2065L120.199 67.2871L117.73 76.1744Z" fill="#F5F5F5"/>
<path d="M122.986 130.456L120.085 142.514L129.141 141.6L129.195 128.955C126.416 128.223 123.99 127.627 122.687 127.376L122.986 130.456Z" fill="#F5F5F5"/>
<path d="M116.873 63.3893L129.455 67.3623L129.485 60.2067L117.127 57.0137L116.873 63.3893Z" fill="#F5F5F5"/>
<path d="M122.528 125.72C123.542 125.874 125.464 126.282 129.202 127.264L129.32 99.6162L120.086 100.505L122.528 125.72Z" fill="#F5F5F5"/>
<path d="M119.982 99.4232L129.324 98.5252L129.382 84.9226L118.505 84.1699L119.982 99.4232Z" fill="#F5F5F5"/>
<path d="M124.577 50.5061C126.348 51.0446 127.995 51.4611 129.521 51.7676L129.55 44.9025L125.573 44.5928L124.577 50.5061Z" fill="#F5F5F5"/>
<path d="M123.486 56.977L129.493 58.529L129.518 52.3259C127.965 52.0146 126.288 51.5917 124.485 51.042L123.486 56.977Z" fill="#F5F5F5"/>
<path d="M41.372 188.252L41.2781 184.991L30.1632 185.704L30.1177 184.981V184.62L41.2456 183.916L40.9242 172.766L30.1495 176.987L30.1567 175.236L40.8705 171.039L40.2815 150.581H40.2735V143.359L30.2838 144.417L30.291 142.779L40.2735 141.722V127.243L30.3618 125.934L30.369 124.294L40.3754 125.614L56.4418 116.244L57.2608 117.65L40.8152 127.241V149.994L58.173 148.766L91.624 145.39L90.3999 130.476L58.4431 126.303L58.6533 124.688L90.2634 128.818L88.1913 103.577L56.9041 106.585L56.8008 105.505L88.1025 102.495L87.0206 89.3243H56.9279L30.499 94.1343L30.5062 92.4789L56.7813 87.6964H66.675L68.2711 80.4699H80.4188V64.9444L42.4308 62.1299V76.7079L30.5655 79.3909L30.5727 77.7204L40.8036 75.4064V62.0093L30.6427 61.256L30.6536 58.5376L32.046 58.6401L37.2315 32.8006L30.767 31.8733V31.6862L30.8175 31.3324L37.3312 32.2734L42.1715 8.16072C42.2596 8.15855 42.3456 8.14844 42.4344 8.14844L43.8319 8.15422L38.9439 32.5045L59.4665 35.4512L58.2431 8.22066H58.7869L60.0132 35.527H60.0204V35.7588C60.0464 37.8836 60.0898 41.707 60.1216 45.7991L80.1032 44.983L79.667 18.4494H80.2101L80.6463 44.9584L92.0147 44.4933L91.6941 43.163L106.201 37.4221L96.7648 18.4841C97.3108 18.4032 97.8293 18.193 98.2778 17.8702L107.719 36.8234L114.002 34.3361L113.985 8.47344H114.528L114.544 34.1201L129.452 28.2203L129.612 28.6334V29.3239L114.539 35.2894C114.232 45.4871 120.636 49.0715 123.53 50.1649L124.665 43.4353L129.551 43.8159L129.547 44.9028L125.57 44.593L124.574 50.5065C126.344 51.046 127.993 51.462 129.517 51.7682V52.3258C127.964 52.0102 126.287 51.5884 124.484 51.0417L123.485 56.9733L129.492 58.5253L129.485 60.2045L117.126 57.0115L116.872 63.3909L129.454 67.3638L129.442 70.2043L120.197 67.2851L117.729 76.1727L118.344 82.5289L129.387 83.2931L129.379 84.9245L118.503 84.1713L119.981 99.4238L129.322 98.5261L129.317 99.6166L120.085 100.505L122.526 125.72C123.541 125.874 125.463 126.282 129.201 127.265L129.194 128.955C126.414 128.224 123.99 127.627 122.686 127.377L122.985 130.456L120.09 142.512L129.145 141.598V142.143L119.957 143.07L118.76 148.045L119.175 161.861L128.924 161.314L128.956 161.855L119.191 162.404L119.688 178.939L128.906 178.356L128.974 179.439L119.721 180.024L119.968 188.246H117.253L117.013 180.195L95.87 181.533L97.2089 188.246H96.655L95.3247 181.567L86.016 182.157C85.925 184.396 85.8434 186.5 85.7748 188.247H84.6893C84.7629 186.401 84.8431 184.347 84.924 182.229L41.8205 184.957L41.9158 188.252H41.372Z" fill="white"/>
<path d="M66.0827 171.787L42.5078 173.442V181.01L81.421 178.904L66.0827 171.787Z" fill="#ECECEC"/>
<path d="M114.649 85.948L91.0676 84.457L89.6104 88.5047L90.4088 100.565L116.013 97.5284L114.649 85.948Z" fill="#ECECEC"/>
<path d="M41.5506 216.885L117.247 217.234C120.317 217.248 123.266 216.042 125.446 213.881C127.626 211.72 128.858 208.782 128.872 205.713L128.946 188.251H30.105L30.0488 201.457V205.612C30.2058 211.861 35.3 216.854 41.5506 216.885Z" fill="#ECECEC"/>
<path d="M57.2491 33.1497L56.8583 10.9736H45.3389L41.999 30.9181L57.2491 33.1497Z" fill="#ECECEC"/>
<path d="M113.09 60.7784L114.261 55.9732L106.156 40.5547L95.7549 45.672L99.2215 60.256L113.09 60.7784Z" fill="#ECECEC"/>
<path d="M42.5068 128.356C42.6312 129.057 42.5068 147.818 42.5068 147.818L57.6654 146.86L55.9265 121.217L42.5068 128.356Z" fill="#ECECEC"/>
<path d="M93.0647 143.592L92.2622 131.965L118.262 128.623V130.629L115.118 141.321L93.0647 143.592Z" fill="#ECECEC"/>
<path d="M73.8326 47.1726C73.8326 48.9214 72.4149 50.3391 70.666 50.3391C68.9172 50.3391 67.4995 48.9214 67.4995 47.1726C67.4995 46.3328 67.8332 45.5275 68.427 44.9338C69.0209 44.3401 69.8263 44.0066 70.666 44.0068C72.4146 44.0068 73.8321 45.424 73.8326 47.1726Z" fill="#FF4F5B"/>
<g opacity="0.6">
<path d="M73.8296 47.0375C73.8657 47.8766 73.567 48.6956 72.9992 49.3144C72.4313 49.9333 71.6409 50.3012 70.8019 50.3372C69.9628 50.3731 69.1438 50.0742 68.5252 49.5062C67.9065 48.9383 67.5388 48.1478 67.5029 47.3087C67.4668 46.4697 67.7656 45.6508 68.3334 45.0321C68.9012 44.4134 69.6916 44.0456 70.5306 44.0098C72.2776 43.9351 73.7545 45.2905 73.8296 47.0375Z" fill="white"/>
</g>
<ellipse cx="70.6662" cy="47.0647" rx="2.10567" ry="2.10567" fill="#FF4F5B"/>
<path d="M119.614 173.654C119.614 174.013 119.471 174.357 119.218 174.61C118.964 174.864 118.62 175.007 118.261 175.007C117.902 175.007 117.558 174.864 117.304 174.611C117.05 174.357 116.907 174.013 116.907 173.654C116.907 173.295 117.05 172.951 117.304 172.697C117.558 172.443 117.902 172.301 118.261 172.301C118.62 172.301 118.964 172.443 119.218 172.697C119.471 172.951 119.614 173.295 119.614 173.654Z" fill="#FF4F5B"/>
<path d="M117.447 173.214L117.121 165.632L94.2659 166.743C93.6682 166.773 93.0732 166.646 92.539 166.377L60.1242 150.006C59.374 149.625 58.8845 148.872 58.8402 148.032L54.4266 62.4608C54.4058 62.0505 54.5622 61.651 54.856 61.3638C55.1511 61.079 55.5535 60.9331 55.9626 60.9626L69.8549 61.9921V46.8047H71.4823V62.2032C71.4819 62.6011 71.3162 62.981 71.0249 63.252C70.7325 63.5219 70.3417 63.6592 69.9447 63.6316L56.0621 62.6028L60.4604 147.943C60.4741 148.201 60.6247 148.432 60.8552 148.549L93.27 164.919C93.5526 165.063 93.8681 165.13 94.1848 165.114L117.229 163.99C117.612 163.972 117.986 164.106 118.268 164.364C118.552 164.621 118.721 164.982 118.736 165.365L119.071 173.137L117.447 173.214Z" fill="#FF4F5B"/>
<ellipse cx="57.0789" cy="99.6121" rx="4.1014" ry="4.1014" fill="#FF4F5B"/>
<ellipse cx="57.08" cy="99.6122" rx="2.84956" ry="2.84955" fill="#FAFAFA"/>
<path d="M54.0298 99.6146C54.0334 97.9319 55.3962 96.569 57.079 96.5654C58.7618 96.569 60.1253 97.9319 60.1282 99.6146C60.1253 101.297 58.7618 102.661 57.079 102.664C55.3962 102.661 54.0334 101.297 54.0298 99.6146Z" fill="#FF4F5B"/>
<path d="M81.2395 82.4102H61.7091C60.7598 82.4102 59.9902 83.1797 59.9902 84.129V91.202C59.9902 92.1513 60.7598 92.9208 61.7091 92.9208H61.937V94.606L63.8926 92.9208H81.2403C82.1896 92.9208 82.9592 92.1513 82.9592 91.202V84.129C82.9592 83.673 82.778 83.2357 82.4555 82.9133C82.133 82.5909 81.6955 82.4099 81.2395 82.4102Z" fill="#FF4F5B"/>
<g opacity="0.4">
<path d="M81.2395 82.4102H61.7091C60.7598 82.4102 59.9902 83.1797 59.9902 84.129V91.202C59.9902 92.1513 60.7598 92.9208 61.7091 92.9208H61.937V94.606L63.8926 92.9208H81.2403C82.1896 92.9208 82.9592 92.1513 82.9592 91.202V84.129C82.9592 83.673 82.778 83.2357 82.4555 82.9133C82.133 82.5909 81.6955 82.4099 81.2395 82.4102Z" fill="white"/>
</g>
<path d="M64.7266 88.3705C64.5042 88.1567 64.3792 87.8613 64.3814 87.5529C64.3792 87.2445 64.5042 86.9491 64.7266 86.7354C64.949 86.5223 65.2495 86.4096 65.5579 86.4241C65.8648 86.4096 66.1645 86.523 66.3863 86.7361C66.6073 86.9499 66.7308 87.2452 66.7279 87.5529C66.7308 87.8606 66.6073 88.156 66.3863 88.3697C66.1645 88.5828 65.8648 88.6962 65.5579 88.6817C65.5395 88.6826 65.5211 88.6831 65.5027 88.6831C65.2139 88.6831 64.9358 88.5715 64.7266 88.3705Z" fill="white"/>
<path d="M68.0532 88.6761C67.8199 88.6855 67.5967 88.5793 67.4573 88.3923V88.6566H67.167V86.3145H67.4703V87.2346C67.6112 87.0576 67.8278 86.9587 68.0539 86.9666C68.2821 86.9572 68.5045 87.0446 68.6649 87.2071C68.8259 87.3703 68.9104 87.5928 68.8982 87.8217C68.9097 88.0499 68.8245 88.2724 68.6642 88.4349C68.511 88.5901 68.3029 88.6768 68.0865 88.6768C68.0754 88.6768 68.0643 88.6766 68.0532 88.6761Z" fill="white"/>
<path d="M69.1021 89.2893C68.9735 89.2958 68.8464 89.2597 68.7402 89.1867L68.8385 88.9535C68.9078 89.0084 68.9952 89.0365 69.084 89.0336C69.2443 89.0336 69.3332 88.9325 69.3332 88.7397V86.9861H69.6358V88.7339C69.6531 88.8827 69.6033 89.0307 69.5 89.1383C69.4057 89.2359 69.2759 89.2908 69.1408 89.2908C69.1279 89.2908 69.115 89.2903 69.1021 89.2893ZM69.3397 86.6091C69.3015 86.5724 69.2798 86.5213 69.2797 86.4679C69.2798 86.4139 69.3015 86.3628 69.3404 86.326C69.3787 86.2885 69.4307 86.2683 69.4841 86.2697C69.5368 86.2675 69.5888 86.2863 69.6271 86.3231C69.6654 86.3593 69.6878 86.4098 69.6885 86.4625C69.69 86.5167 69.6683 86.5687 69.6293 86.607C69.591 86.6453 69.5383 86.6655 69.4841 86.664C69.4814 86.6641 69.4788 86.6642 69.4761 86.6642C69.4255 86.6642 69.3767 86.6448 69.3397 86.6091Z" fill="white"/>
<path d="M70.3183 88.4479C70.1472 88.2854 70.0525 88.0572 70.0583 87.821C70.0489 87.5949 70.1342 87.3754 70.293 87.2136C70.4519 87.0525 70.6708 86.9644 70.8968 86.9702C71.1243 86.9623 71.3446 87.0518 71.502 87.2165C71.6595 87.3804 71.7404 87.6036 71.723 87.8311C71.7245 87.8564 71.7209 87.8932 71.718 87.9221H70.3617C70.4021 88.2197 70.6679 88.4341 70.9676 88.4103C71.1496 88.4168 71.3258 88.3432 71.4486 88.2088L71.6161 88.4045C71.4471 88.5887 71.2059 88.6876 70.9568 88.6761C70.9363 88.6776 70.9158 88.6783 70.8953 88.6783C70.6814 88.6784 70.4746 88.5962 70.3183 88.4479Z" fill="white"/>
<path d="M71.989 87.8205C71.9841 87.5878 72.0766 87.3635 72.2442 87.2019C72.4118 87.0402 72.6392 86.9559 72.8717 86.9691C73.147 86.9525 73.4089 87.0897 73.5522 87.3254L73.3218 87.4739C73.2232 87.3194 73.0508 87.228 72.8677 87.2331C72.7115 87.2274 72.5603 87.2879 72.451 87.3995C72.3418 87.5112 72.2847 87.6638 72.2939 87.8197C72.2838 87.9762 72.3404 88.1295 72.4498 88.2418C72.5592 88.3541 72.711 88.4148 72.8677 88.4087C73.0509 88.414 73.2234 88.3226 73.3218 88.168L73.5522 88.3133C73.4091 88.5496 73.1475 88.6878 72.8717 88.6728C72.6393 88.6853 72.4121 88.6006 72.2447 88.4389C72.0772 88.2773 71.9846 88.0532 71.989 87.8205Z" fill="white"/>
<path d="M74.9057 88.5587C74.8007 88.6384 74.6715 88.6794 74.5398 88.6751C74.3964 88.6901 74.2538 88.6401 74.1512 88.5387C74.0486 88.4374 73.9969 88.2954 74.0101 88.1518V87.2338H73.7261V86.9851H74.0101V86.6191H74.3127V86.9851H74.7942V87.2338H74.3127V88.139C74.302 88.2128 74.3254 88.2875 74.3762 88.3421C74.4271 88.3966 74.4999 88.4252 74.5743 88.4199C74.66 88.4205 74.7434 88.3922 74.811 88.3396L74.9057 88.5587Z" fill="white"/>
<path d="M75.2705 88.6564V86.9844H75.5731V88.6564H75.2705ZM75.2784 86.6089C75.2402 86.5713 75.2178 86.5208 75.2178 86.4673C75.2178 86.4132 75.2394 86.3619 75.2784 86.3251C75.3167 86.2875 75.3687 86.2673 75.4222 86.2687C75.4756 86.2666 75.5269 86.2853 75.5659 86.3222C75.6042 86.3583 75.6265 86.4088 75.628 86.4616C75.6287 86.5157 75.607 86.5684 75.5688 86.6067C75.5298 86.6443 75.4771 86.6652 75.4222 86.6631C75.4195 86.6632 75.4168 86.6632 75.4141 86.6632C75.3635 86.6632 75.3148 86.6439 75.2784 86.6089Z" fill="white"/>
<path d="M77.6315 86.9844L76.8997 88.6559H76.5907L75.8589 86.9844H76.1743L76.7488 88.3245L77.3354 86.9844H77.6315Z" fill="white"/>
<path d="M77.9721 88.4479C77.801 88.2854 77.7063 88.0572 77.7121 87.821C77.7027 87.5949 77.788 87.3747 77.9468 87.2136C78.1065 87.0518 78.3253 86.9637 78.5513 86.9702C78.7788 86.9623 78.9991 87.0518 79.1566 87.2165C79.314 87.3804 79.3949 87.6036 79.3783 87.8311C79.3783 87.8564 79.3747 87.8932 79.3718 87.9221H78.0155C78.0559 88.2197 78.3217 88.4341 78.6214 88.4103C78.8034 88.4168 78.9796 88.3432 79.1024 88.2088L79.27 88.4045C79.101 88.5887 78.8597 88.6876 78.6106 88.6761C78.5901 88.6776 78.5696 88.6783 78.5492 88.6783C78.3352 88.6784 78.1284 88.5962 77.9721 88.4479Z" fill="white"/>
<path d="M70.1463 42.4457L67.7897 39.3235C67.5926 39.0513 67.3976 38.8635 67.2416 38.6013L67.2293 38.5854C66.7367 37.7513 66.5605 36.7683 66.7317 35.815C67.0271 34.1691 68.3011 32.8727 69.942 32.5491C71.1336 32.3144 72.3679 32.6264 73.3061 33.3977C74.2442 34.1691 74.788 35.3203 74.7888 36.5343C74.7895 37.2544 74.5974 37.9614 74.2327 38.5818L74.2247 38.5926C74.0427 38.8642 73.8456 39.1249 73.6347 39.3748L71.3163 42.4457C71.1777 42.6291 70.961 42.7367 70.7313 42.7367C70.5017 42.7367 70.285 42.6291 70.1463 42.4457Z" fill="#FF4F5B"/>
<path d="M48.5014 196.498H47.7446V196.224H49.5702V196.498H48.8135V198.431H48.5014V196.498Z" fill="#1A2E35"/>
<path d="M49.7917 198.213C49.627 198.051 49.536 197.828 49.5418 197.597C49.5367 197.365 49.627 197.143 49.7924 196.981C49.957 196.82 50.1824 196.734 50.4128 196.745C50.6431 196.735 50.867 196.82 51.0317 196.982C51.1964 197.144 51.2859 197.366 51.2794 197.597C51.2859 197.828 51.1964 198.051 51.0324 198.213C50.8678 198.374 50.6431 198.461 50.4128 198.451C50.4005 198.451 50.3883 198.452 50.3761 198.452C50.158 198.452 49.9483 198.367 49.7917 198.213Z" fill="#1A2E35"/>
<path d="M52.6389 198.334C52.534 198.414 52.4048 198.456 52.273 198.451C52.1293 198.467 51.9863 198.417 51.8835 198.315C51.7807 198.214 51.729 198.071 51.7426 197.927V197.01H51.4585V196.761H51.7426V196.396H52.0451V196.761H52.5266V197.01H52.0451V197.915C52.0344 197.989 52.0579 198.064 52.1089 198.119C52.1599 198.173 52.233 198.202 52.3075 198.196C52.3932 198.197 52.4765 198.168 52.5442 198.116L52.6389 198.334Z" fill="#1A2E35"/>
<path d="M53.4944 198.452C53.1153 198.452 52.8755 198.25 52.8755 197.96C52.8755 197.691 53.0488 197.47 53.5479 197.47H54.0296V197.411C54.0296 197.156 53.8808 197.01 53.5818 197.01C53.3897 197.008 53.2027 197.071 53.051 197.19L52.9253 196.962C53.1247 196.815 53.368 196.74 53.615 196.748C54.0715 196.745 54.3293 196.966 54.3293 197.423V198.432H54.0433V198.211C53.9246 198.366 53.7416 198.454 53.5496 198.454C53.5313 198.454 53.5129 198.454 53.4944 198.452Z" fill="#1A2E35"/>
<path d="M54.8906 196.092H55.1932V198.432H54.8906V196.092Z" fill="#1A2E35"/>
<path d="M56.7018 198.209C56.5415 198.047 56.4563 197.824 56.4678 197.595C56.457 197.368 56.5415 197.146 56.7026 196.983C56.8636 196.821 57.0853 196.735 57.3128 196.744C57.5389 196.736 57.7556 196.836 57.8964 197.012V196.092H58.1997V198.432H57.9094V198.166C57.77 198.354 57.5468 198.46 57.3128 198.451C57.3025 198.451 57.2921 198.451 57.2818 198.451C57.0646 198.451 56.8556 198.364 56.7018 198.209Z" fill="#1A2E35"/>
<path d="M58.7695 198.432V196.761H59.0729V198.432H58.7695ZM58.7775 196.385C58.7392 196.347 58.7168 196.297 58.7168 196.243C58.7168 196.189 58.7385 196.138 58.7767 196.1C58.8157 196.063 58.8677 196.043 58.9212 196.044C58.9746 196.042 59.0266 196.061 59.0649 196.098C59.1039 196.134 59.1263 196.184 59.127 196.238C59.1277 196.292 59.1061 196.345 59.0678 196.383C59.0288 196.42 58.9761 196.441 58.9212 196.439C58.9185 196.439 58.9158 196.439 58.9131 196.439C58.8625 196.439 58.8138 196.42 58.7775 196.385Z" fill="#1A2E35"/>
<path d="M59.439 198.256L59.5658 198.015C59.7402 198.129 59.9441 198.189 60.1524 198.189C60.4324 198.189 60.5536 198.104 60.5536 197.962C60.5536 197.587 59.4967 197.912 59.4967 197.246C59.4967 196.946 59.7648 196.744 60.1941 196.744C60.4069 196.741 60.617 196.793 60.8032 196.896L60.674 197.137C60.5298 197.047 60.3625 197.001 60.1925 197.004C59.9277 197.004 59.7985 197.102 59.7985 197.235C59.7985 197.629 60.8585 197.307 60.8585 197.957C60.8585 198.259 60.5809 198.452 60.1363 198.452C59.8893 198.46 59.6458 198.391 59.439 198.256Z" fill="#1A2E35"/>
<path d="M62.1703 198.334C62.0655 198.414 61.9362 198.456 61.8044 198.451C61.6609 198.466 61.5181 198.416 61.4155 198.315C61.3129 198.213 61.2613 198.071 61.2748 197.927V197.01H60.9907V196.761H61.2748V196.396H61.5773V196.761H62.0588V197.01H61.5773V197.915C61.5667 197.989 61.5901 198.064 61.6409 198.118C61.6917 198.173 61.7645 198.202 61.8389 198.196C61.9246 198.197 62.0079 198.168 62.0757 198.116L62.1703 198.334Z" fill="#1A2E35"/>
<path d="M63.0225 198.452C62.6434 198.452 62.4043 198.25 62.4043 197.96C62.4043 197.691 62.5776 197.47 63.076 197.47H63.5577V197.411C63.5577 197.156 63.4089 197.01 63.1099 197.01C62.9178 197.008 62.7307 197.071 62.5791 197.19L62.4534 196.962C62.6535 196.815 62.8961 196.74 63.1438 196.748C63.6017 196.745 63.8581 196.966 63.8581 197.423V198.432H63.5714V198.211C63.453 198.365 63.2706 198.455 63.0791 198.455C63.0603 198.455 63.0414 198.454 63.0225 198.452Z" fill="#1A2E35"/>
<path d="M66.0082 197.47V198.433H65.7056V197.506C65.7056 197.178 65.5452 197.017 65.2547 197.017C65.1064 197.005 64.9609 197.061 64.8581 197.169C64.7554 197.276 64.7063 197.424 64.7242 197.572V198.433H64.4209V196.761H64.7114V197.013C64.8566 196.832 65.081 196.732 65.3132 196.745C65.5073 196.73 65.6981 196.802 65.8328 196.943C65.9676 197.083 66.032 197.277 66.0082 197.47Z" fill="#1A2E35"/>
<path d="M66.4269 197.596C66.4221 197.363 66.5146 197.139 66.6822 196.977C66.8498 196.816 67.0772 196.731 67.3097 196.745C67.5852 196.728 67.8472 196.865 67.9909 197.101L67.7606 197.249C67.6623 197.095 67.4897 197.003 67.3064 197.009C67.1503 197.003 66.9991 197.063 66.8898 197.175C66.7806 197.287 66.7235 197.439 66.7327 197.595C66.7223 197.752 66.7789 197.905 66.8883 198.018C66.9977 198.13 67.1497 198.191 67.3064 198.185C67.4897 198.19 67.6623 198.099 67.7606 197.944L67.9909 198.089C67.8476 198.326 67.5857 198.464 67.3097 198.449C67.0771 198.461 66.8498 198.377 66.6824 198.215C66.5149 198.053 66.4224 197.829 66.4269 197.596Z" fill="#1A2E35"/>
<path d="M68.4594 198.223C68.2883 198.061 68.1937 197.833 68.1994 197.596C68.19 197.37 68.2753 197.15 68.4342 196.989C68.5938 196.827 68.8126 196.739 69.0387 196.746C69.2661 196.738 69.4864 196.827 69.6439 196.992C69.8013 197.156 69.8822 197.379 69.8656 197.606C69.8663 197.631 69.862 197.668 69.8591 197.697H68.5028C68.5432 197.995 68.809 198.21 69.1087 198.186C69.2907 198.192 69.4669 198.119 69.5897 197.984L69.7573 198.18C69.5883 198.364 69.347 198.463 69.0979 198.451C69.0774 198.453 69.0569 198.454 69.0365 198.454C68.8225 198.454 68.6157 198.372 68.4594 198.223Z" fill="#1A2E35"/>
<path d="M50.483 200.907V206.175H49.2641V201.886H48.2104V200.908L50.483 200.907Z" fill="#1A2E35"/>
<path d="M52.8229 205.497C52.8124 205.76 52.7427 206.017 52.6191 206.25L52.1906 207.333H51.4451L51.7757 206.136C51.5172 206.031 51.3541 205.773 51.3697 205.495C51.3625 205.299 51.4374 205.11 51.5762 204.973C51.715 204.836 51.9049 204.763 52.0999 204.772C52.2946 204.763 52.484 204.837 52.6217 204.975C52.7593 205.113 52.8324 205.302 52.8229 205.497Z" fill="#1A2E35"/>
<path d="M55.2804 200.907V206.175H54.0615V201.886H53.0078V200.908L55.2804 200.907Z" fill="#1A2E35"/>
<path d="M56.2012 203.541C56.2012 201.802 57.1639 200.812 58.4588 200.812C59.753 200.812 60.7158 201.798 60.7158 203.541C60.7158 205.284 59.7603 206.265 58.4588 206.265C57.1567 206.265 56.2012 205.279 56.2012 203.541Z" fill="#1A2E35"/>
<path d="M61.3105 203.541C61.3105 201.802 62.2733 200.812 63.5682 200.812C64.8624 200.812 65.8251 201.798 65.8251 203.541C65.8251 205.284 64.8696 206.265 63.5682 206.265C62.266 206.265 61.3105 205.279 61.3105 203.541Z" fill="#1A2E35"/>
<path d="M75.6363 203.855V206.172H74.4623V204.035C74.4623 203.381 74.1686 203.08 73.6952 203.08C73.1679 203.08 72.7996 203.418 72.7996 204.14V206.172H71.6288V204.035C71.6288 203.381 71.3504 203.08 70.8617 203.08C70.3425 203.08 69.9733 203.418 69.9733 204.14V206.172H68.7993V202.124H69.9228V202.59C70.249 202.237 70.714 202.044 71.1947 202.064C71.7241 202.035 72.2296 202.287 72.5268 202.726C72.8848 202.291 73.4237 202.047 73.9865 202.064C74.4581 202.034 74.9179 202.219 75.238 202.566C75.5581 202.914 75.7045 203.387 75.6363 203.855Z" fill="#1A2E35"/>
<ellipse cx="47.5671" cy="200.738" rx="4.54356" ry="4.54356" transform="rotate(-76.766 47.5671 200.738)" fill="#4B92B1"/>
<path d="M38.7261 201.324C39.1123 201.267 39.5026 201.243 39.8929 201.252C40.6352 201.231 41.6952 201.213 42.9655 201.201L42.8724 201.403L41.7137 200.065L41.6406 199.98L41.7121 199.892L42.8564 198.463L42.9663 198.692H42.4495L38.7261 198.677L38.8521 198.55C38.8408 199.928 38.8232 201.087 38.8015 201.902C38.8109 202.332 38.7856 202.761 38.7261 203.186C38.6669 202.761 38.6419 202.332 38.6515 201.902C38.6298 201.088 38.6121 199.929 38.6001 198.55V198.424H38.7277L42.4511 198.409H43.2632L43.0771 198.639L41.9239 200.061V199.889L43.0634 201.244L43.2359 201.45H42.9703C41.7 201.438 40.6432 201.42 39.8977 201.399C39.5057 201.407 39.1138 201.382 38.7261 201.324Z" fill="#FAFAFA"/>
<path d="M114.024 192.747H100.293C98.8431 192.748 97.6674 193.923 97.667 195.374V206.183C97.6674 207.633 98.8431 208.809 100.293 208.809H100.642V211.385L103.63 208.809H114.024C115.474 208.809 116.65 207.633 116.65 206.183V195.374C116.65 193.923 115.474 192.747 114.024 192.747Z" fill="#4B92B1"/>
</svg>
