<svg width="229" height="219" viewBox="0 0 229 219" fill="none" xmlns="http://www.w3.org/2000/svg">
<path opacity="0.5" d="M200.531 218.999H145.796C145.4 218.999 145.079 218.678 145.079 218.282C145.079 218.092 145.155 217.91 145.289 217.775C145.424 217.641 145.606 217.565 145.796 217.565H200.531C200.721 217.565 200.903 217.641 201.037 217.775C201.172 217.91 201.247 218.092 201.247 218.282C201.247 218.678 200.926 218.999 200.531 218.999Z" fill="#7098B3"/>
<path opacity="0.5" d="M62.967 218.999H8.23102C7.83511 218.999 7.51416 218.678 7.51416 218.282C7.51416 217.886 7.83511 217.565 8.23102 217.565H62.967C63.1572 217.565 63.3395 217.641 63.4739 217.775C63.6084 217.91 63.6839 218.092 63.6839 218.282C63.6839 218.678 63.363 218.999 62.967 218.999Z" fill="#7098B3"/>
<path d="M194.838 102.597C198.421 102.549 197.065 81.3191 194.599 82.0025C192.133 82.6859 186.715 92.8688 186.715 92.8688L194.838 102.597Z" fill="#F5D798"/>
<path d="M193.901 101.485C197.071 101.443 195.872 83.0399 193.691 83.6332C191.509 84.2264 186.711 93.0527 186.711 93.0527L193.901 101.485Z" fill="white"/>
<path d="M139.402 182.581C139.645 180.909 151.829 180.909 150.993 182.581C150.157 184.253 144.185 187 142.268 186.643C140.352 186.285 139.402 182.581 139.402 182.581Z" fill="#452B21"/>
<path d="M152.434 174.34L149.09 185.209L141.565 184L144.432 167.769L152.434 174.34Z" fill="#FE9D77"/>
<path d="M139.402 182.583C139.402 182.583 149.201 184.734 150.993 182.583C151.352 184.494 155.532 187.002 159.594 187.236C163.655 187.47 162.819 192.014 162.819 192.014H136.897C136.897 192.014 136.897 188.191 137.973 186.758C138.729 185.478 139.215 184.057 139.402 182.583Z" fill="#633E2F"/>
<path d="M162.652 189.467C159.452 189.866 156.224 189.994 153.002 189.849C152.739 189.835 152.477 189.81 152.214 189.794C151.465 189.99 150.686 190.047 149.917 189.96C147.327 189.643 144.734 189.634 142.135 189.487C140.993 189.422 139.852 189.349 138.709 189.291C138.342 189.273 137.974 189.283 137.609 189.323C137.443 189.364 137.275 189.395 137.105 189.416C136.979 190.278 136.91 191.147 136.897 192.019H162.819C162.949 191.166 162.892 190.295 162.652 189.467Z" fill="#452B21"/>
<path d="M119.7 182.581C119.943 180.909 132.126 180.909 131.29 182.581C130.454 184.253 124.482 187 122.566 186.643C120.649 186.285 119.7 182.581 119.7 182.581Z" fill="#452B21"/>
<path d="M118.983 170.399C118.983 170.399 124.481 179 126.034 179.238C127.587 179.477 132.009 180.156 133.688 178.045C135.368 175.933 121.488 165.617 118.983 170.399Z" fill="#072130"/>
<ellipse cx="60.9808" cy="193.386" rx="25.6151" ry="25.6151" fill="#633E2F"/>
<ellipse cx="202.774" cy="193.386" rx="25.6151" ry="25.6151" fill="#633E2F"/>
<path d="M81.5982 125.723L41.2241 159.167C41.2241 159.167 85.2436 187.835 88.079 192.017C89.9463 194.67 92.2655 196.975 94.9307 198.825H166.171C168.435 198.825 170.557 197.718 171.853 195.86L202.776 151.523C202.776 151.523 182.655 105.105 180.983 98.69C184.806 100.157 191.256 103.121 194.839 102.594C193.167 98.7234 191.973 86.0613 194.601 82C191.972 81.7616 181.939 88.8342 179.55 90.1938C177.16 91.5533 171.394 89.8841 171.394 89.8841L170.168 97.1719C170.168 97.1719 176.922 100.489 178.833 113.223C180.743 125.958 180.505 160.958 160.199 176.486C139.892 192.014 102.472 187.87 100.219 167.762C98.0831 148.649 132.007 125.75 132.007 125.75L81.5982 125.723Z" fill="#F2BB25"/>
<g style="mix-blend-mode:multiply" opacity="0.3">
<path d="M165.31 194.22C163.187 193.802 161.097 193.229 159.057 192.508C156.204 192.633 153.385 191.847 151.007 190.265C148.665 188.521 146.688 186.333 145.191 183.825C137.416 186.051 129.242 186.504 121.269 185.151C121.052 186.369 120.555 187.519 119.814 188.51C120.061 189.574 120.084 190.678 119.881 191.751C121.464 192.631 123.168 193.274 124.937 193.659C131.319 194.968 137.518 196.736 143.864 198.189C144.852 198.415 145.844 198.625 146.836 198.828H166.175C168.44 198.828 170.562 197.72 171.858 195.862L172.25 195.302C169.919 195.017 167.601 194.678 165.31 194.22Z" fill="#F2BB25"/>
</g>
<g style="mix-blend-mode:multiply" opacity="0.3">
<path d="M95.2275 125.732C98.4345 129.344 101.416 133.15 104.156 137.128C105.931 139.639 108.237 142.995 109.972 145.335C116.522 137.962 123.922 131.39 132.017 125.757L95.2275 125.732Z" fill="#F2BB25"/>
</g>
<path d="M179.925 96.3865C183.986 94.4962 186.375 76.6357 186.375 76.6357L190.156 76.0672C192.238 75.7547 193.896 74.1605 194.29 72.0917C194.914 68.8142 195.55 64.2673 194.504 63.3673C192.831 61.935 185.426 59.9124 185.187 61.4013C184.949 62.8903 183.037 73.1619 183.515 75.3125C183.993 77.4631 180.569 93.1977 177.862 93.8142C175.154 94.4308 176.945 97.7752 179.925 96.3865Z" fill="#F2BB25"/>
<path d="M132.07 128.352H82.9841C81.0712 128.352 79.5205 126.801 79.5205 124.888C79.5205 122.976 81.0712 121.425 82.9841 121.425H132.07C133.983 121.425 135.534 122.975 135.535 124.888C135.534 126.802 133.983 128.352 132.07 128.352Z" fill="#633E2F"/>
<g style="mix-blend-mode:multiply" opacity="0.3">
<path d="M79.5566 125.246C79.7347 127.007 81.2145 128.348 82.9839 128.352H132.069C133.839 128.348 135.319 127.007 135.497 125.246H79.5566Z" fill="#633E2F"/>
</g>
<path d="M25.4546 162.911C25.4546 161.504 26.5947 160.364 28.0011 160.364H35.0918C36.4982 160.364 37.6383 161.504 37.6383 162.911V165.223C37.6383 166.63 36.4982 167.77 35.0918 167.77H28.0011C26.5947 167.77 25.4546 166.63 25.4546 165.223V162.911Z" fill="#633E2F"/>
<path d="M28.4662 192.02C27.4005 192.02 26.5366 191.156 26.5366 190.091V180.126C26.5366 179.06 27.4005 178.196 28.4662 178.196C29.5319 178.196 30.3958 179.06 30.3958 180.126V190.091C30.3958 191.156 29.5319 192.02 28.4662 192.02Z" fill="#633E2F"/>
<path d="M0.610352 67.0345C0.610352 64.6801 2.51896 62.7715 4.87335 62.7715H70.5274C72.8817 62.7715 74.7904 64.6801 74.7904 67.0345V124.087C74.7904 126.442 72.8818 128.35 70.5274 128.35H4.87335C2.51896 128.35 0.610352 126.442 0.610352 124.087V67.0345Z" fill="#F2BB25"/>
<path d="M74.7904 69.8194V66.5346C74.7904 64.4563 73.1055 62.7715 71.0272 62.7715H4.37352C3.37535 62.7711 2.41795 63.1674 1.71213 63.8733C1.00632 64.5791 0.609966 65.5365 0.610352 66.5346V69.8194H74.7904Z" fill="#F5D798"/>
<g style="mix-blend-mode:multiply" opacity="0.2">
<path d="M2.0498 127.529C2.7094 128.059 3.52988 128.35 4.37634 128.352H71.03C72.0282 128.352 72.9856 127.956 73.6914 127.25C74.3972 126.544 74.7936 125.587 74.7932 124.589V81.2861C51.8566 98.6721 27.5265 114.139 2.0498 127.529Z" fill="#E8BD61"/>
</g>
<rect x="48.9395" y="62.7715" width="7.52488" height="65.579" fill="#072130"/>
<rect x="24.4907" y="62.7715" width="7.52488" height="65.579" fill="#072130"/>
<ellipse cx="60.9808" cy="193.384" rx="12.8221" ry="12.8221" fill="#7098B3"/>
<path d="M57.564 193.386C57.564 191.499 59.0938 189.969 60.9811 189.969C61.8872 189.969 62.7562 190.329 63.3968 190.97C64.0374 191.611 64.3971 192.48 64.3967 193.386C64.3967 195.272 62.8677 196.802 60.9811 196.803C59.0938 196.803 57.564 195.273 57.564 193.386Z" fill="#0E4161"/>
<ellipse cx="202.774" cy="193.384" rx="12.8221" ry="12.8221" fill="#7098B3"/>
<path d="M199.357 193.386C199.357 192.479 199.717 191.61 200.358 190.969C200.999 190.328 201.868 189.968 202.775 189.969C203.681 189.969 204.55 190.329 205.19 190.97C205.831 191.611 206.191 192.48 206.19 193.386C206.191 194.292 205.831 195.161 205.19 195.802C204.55 196.443 203.681 196.803 202.775 196.803C201.868 196.803 200.999 196.443 200.358 195.802C199.717 195.161 199.357 194.292 199.357 193.386Z" fill="#0E4161"/>
<g style="mix-blend-mode:multiply" opacity="0.2">
<path d="M71.689 192.827C76.5446 194.786 81.266 197.062 85.8227 199.641C86.3365 197.597 86.5963 195.497 86.5962 193.389C86.5962 179.242 75.1288 167.774 60.9826 167.773C48.1541 167.775 37.3057 177.267 35.6001 189.982C47.2255 186.866 60.8561 188.417 71.689 192.827Z" fill="#633E2F"/>
</g>
<g style="mix-blend-mode:multiply" opacity="0.2">
<path d="M204.391 180.926C209.518 178.48 214.801 176.375 220.206 174.627C215.474 170.214 209.243 167.763 202.773 167.771C195.979 167.771 189.464 170.469 184.661 175.273C179.857 180.077 177.159 186.592 177.159 193.386C177.158 196.266 177.644 199.127 178.596 201.845C184.854 192.682 194.518 185.557 204.391 180.926Z" fill="#633E2F"/>
</g>
<path d="M103.817 102.956C103.817 102.956 155.467 107.925 161.416 115.332C167.365 122.739 153.389 175.894 153.389 175.894C153.389 175.894 134.939 176.013 133.354 172.431C131.769 168.848 155.659 141.851 153.389 133.727C151.12 125.603 106.444 111.749 106.206 111.39C105.967 111.031 103.817 102.956 103.817 102.956Z" fill="#072130"/>
<path d="M136.922 38.7617C136.858 40.9836 134.815 43.3348 132.305 47.8134C129.795 52.292 114.209 43.1603 120.838 39.8363C123.7 38.347 125.672 35.5744 126.141 32.3827C126.523 30.3889 126.718 28.3638 126.723 26.3337C126.758 24.8564 126.758 23.4168 126.816 22.0762C126.816 22.0762 136.327 25.7812 136.914 26.2261C137.502 26.6711 136.987 36.5399 136.922 38.7617Z" fill="#FE9D77"/>
<path d="M131.279 36.2355C131.964 38.883 133.193 41.359 134.888 43.5059C135.948 42.1179 136.647 40.4887 136.923 38.7641C136.987 36.5423 137.505 26.6691 136.923 26.2212C136.521 25.9115 131.847 24.0401 129.003 22.9248C129.379 27.4186 130.14 31.8719 131.279 36.2355Z" fill="#E8825A"/>
<path d="M164.356 95.8847C164.391 95.0632 165.474 93.7865 165.766 93.2674C165.84 93.117 165.938 92.9799 166.057 92.8617C166.309 92.7034 166.617 92.6605 166.903 92.7438C167.189 92.8272 167.426 93.0288 167.553 93.2979C167.783 93.8526 167.842 94.4634 167.721 95.0515C167.696 95.7465 167.163 96.3172 166.472 96.3893C165.823 96.4943 165.162 96.4869 164.516 96.3675C164.396 96.2371 164.337 96.0612 164.356 95.8847Z" fill="#E8825A"/>
<path d="M134.021 175.304L129.14 185.21L121.017 184.374L127.494 163.436L134.021 175.304Z" fill="#FE9D77"/>
<path d="M141.494 136.474C136.541 141.731 120.287 163.948 118.977 170.398C124.594 171.115 123.258 175.415 126.912 177.087C129.019 178.085 131.381 178.418 133.682 178.042C133.682 178.042 160.648 144.832 161.385 131.456C162.222 116.286 140.13 111.535 128.859 108.402C117.289 105.191 92.3427 103.711 92.3427 103.711C92.3427 103.711 88.7903 120.228 90.9089 122.378C92.5768 124.072 99.0663 125.409 101.22 126.105C106.354 127.766 111.544 129.245 116.755 130.67C122.026 132.113 127.318 133.495 132.643 134.729L141.494 136.474Z" fill="#0E4161"/>
<path d="M132.007 129.903H121.49C121.292 129.903 121.132 129.743 121.132 129.545C121.133 129.348 121.292 129.188 121.49 129.188H132.001C132.199 129.188 132.359 129.348 132.359 129.545C132.359 129.741 132.202 129.9 132.007 129.903Z" fill="#072130"/>
<path d="M124.792 170.523C124.598 170.523 124.439 170.368 124.434 170.174C124.495 169.005 124.834 167.869 125.424 166.858L131.94 153.526C132.027 153.348 132.242 153.275 132.42 153.362C132.598 153.448 132.672 153.663 132.586 153.842L126.068 167.174C125.532 168.081 125.217 169.103 125.151 170.155C125.154 170.25 125.119 170.342 125.053 170.411C124.988 170.48 124.898 170.52 124.803 170.523H124.792Z" fill="#072130"/>
<path d="M119.7 182.583C119.7 182.583 129.499 184.734 131.29 182.583C131.649 184.494 135.83 187.002 139.891 187.236C143.952 187.47 143.118 192.014 143.118 192.014H117.196C117.196 192.014 117.196 188.191 118.27 186.758C119.027 185.478 119.513 184.057 119.7 182.583Z" fill="#633E2F"/>
<path d="M142.945 189.467C139.745 189.866 136.517 189.994 133.295 189.849C133.034 189.835 132.77 189.81 132.507 189.794C131.759 189.99 130.98 190.046 130.211 189.96C127.62 189.643 125.029 189.634 122.428 189.487C121.286 189.422 120.145 189.349 119.002 189.291C118.635 189.273 118.267 189.283 117.902 189.323C117.736 189.364 117.568 189.395 117.398 189.416C117.272 190.278 117.202 191.147 117.19 192.019H143.112C143.242 191.166 143.185 190.295 142.945 189.467Z" fill="#452B21"/>
<path d="M140.787 65.8769C141.563 69.579 141.907 73.1633 145.796 76.15C151.443 80.0952 157.33 83.6855 163.423 86.9C164.02 86.9 169.569 83.4364 171.393 84.1532C173.216 84.8701 176.085 87.2577 176.443 88.4529C176.8 89.6482 175.877 91.5589 175.204 91.0805C174.53 90.6021 173.987 87.0192 171.391 86.7807C168.796 86.5423 167.746 91.3204 166.06 92.1608C164.375 93.0013 162.466 94.073 151.355 89.0549C140.245 84.0369 129.887 78.7819 128.914 66.9529C127.942 55.124 140.787 65.8769 140.787 65.8769Z" fill="#E8825A"/>
<path d="M127.35 9.37709C124.761 13.7757 127.021 26.8173 129.531 30.1617C131.264 32.3454 133.403 34.1724 135.831 35.5418C137.437 36.6446 139.396 37.111 141.326 36.8505C143.326 36.1641 143.868 30.246 144.345 28.9316C144.822 27.6171 145.864 28.2496 147.298 27.652C148.732 27.0543 145.864 22.3969 145.99 20.2463C146.115 18.0957 148.379 17.1419 147.423 11.7647C146.468 6.3875 133.322 -0.776753 127.35 9.37709Z" fill="#FE9D77"/>
<path d="M143.526 30.8208C142.71 30.8204 141.918 30.5447 141.278 30.0385C141.204 29.9798 141.155 29.8937 141.144 29.7993C141.133 29.7049 141.16 29.6099 141.219 29.5354C141.342 29.38 141.568 29.3539 141.723 29.4772C142.255 29.8918 142.912 30.1133 143.586 30.1054C143.783 30.1029 143.946 30.2587 143.952 30.4558C143.956 30.6539 143.799 30.8175 143.6 30.8222L143.526 30.8208Z" fill="#D17551"/>
<path d="M129.275 28.2509C128.954 29.1642 128.549 30.0457 128.065 30.8843C127.882 31.278 127.595 31.6143 127.235 31.857C127.008 32.0126 126.205 32.0955 126.143 32.3834C126.525 30.3872 126.72 28.3596 126.724 26.3272C126.886 26.191 127.039 26.0454 127.184 25.8909C127.533 25.5231 127.649 24.0399 128.238 24.146C128.631 24.2188 129.34 26.4362 129.392 26.7547C129.467 27.2559 129.427 27.7675 129.275 28.2509Z" fill="#E8825A"/>
<path d="M143.346 19.9605C143.52 20.6875 143.304 21.3535 142.862 21.4597C142.42 21.5658 141.921 21.0685 141.746 20.3473C141.572 19.6261 141.789 18.9543 142.231 18.8481C142.673 18.742 143.171 19.2451 143.346 19.9605Z" fill="#452B21"/>
<path d="M144.662 15.6666C145.14 15.732 145.843 15.9458 145.795 16.4489C145.731 17.1279 143.995 16.9578 143.512 17.0887C143.083 17.2035 140.714 18.233 140.788 17.4071C140.867 16.555 143.811 15.6273 144.412 15.6448C144.482 15.6477 144.567 15.655 144.662 15.6666Z" fill="#452B21"/>
<path d="M123.077 28.1891C122.808 30.1608 125.615 30.7221 127.198 29.7551C130.794 27.5624 128.721 23.2118 128.99 21.6123C129.259 20.0128 130.023 19.9314 130.794 19.0575C131.049 18.7666 132.305 18.5194 132.788 20.164C133.183 21.509 133.199 22.5516 134.365 22.1997C135.532 21.8478 134.774 19.4544 135.849 17.7357C136.923 16.017 140.994 12.613 143.951 12.344C146.907 12.075 149.526 13.4185 148.351 10.8215C147.176 8.22456 141.442 0.339085 133.557 3.02768C125.671 5.71627 120.854 9.79787 121.123 13.2062C121.266 15.6239 121.879 17.9905 122.926 20.1742C123.842 22.0849 124.643 23.9737 124.36 25.2082C124.085 26.2607 123.652 27.2656 123.077 28.1891Z" fill="#633E2F"/>
<path d="M121.132 16.341C121.132 16.341 142.705 15.0192 144.317 14.5728C145.93 14.1264 154.46 14.7691 156.322 14.25C158.121 13.7483 159.905 11.6152 157.039 10.6308C154.185 9.79017 151.287 9.10239 148.36 8.57036C148.36 8.57036 143.6 0.686335 135.001 0.596182C126.402 0.50603 123.163 4.62544 122.205 6.61462C120.879 9.36574 120.405 14.4303 121.132 16.341Z" fill="#E04428"/>
<path d="M164.355 105.415C164.355 105.415 166.492 93.6629 167.107 91.1168C167.722 88.5707 168.97 86.7793 171.392 86.7793C172.481 86.8088 173.508 87.2879 174.231 88.1026C174.953 88.9173 175.306 89.9948 175.205 91.079C174.891 92.9911 171.157 104.696 169.799 106.607C168.44 108.518 163.936 107.701 164.355 105.415Z" fill="#543428"/>
<path d="M170.139 105.417C170.137 104.576 169.696 103.798 168.976 103.365C168.368 102.998 167.645 102.871 166.949 103.007C166.516 103.104 166.097 103.25 165.698 103.444C164.597 103.937 164.549 104.316 164.347 105.412C163.928 107.697 168.432 108.518 169.791 106.606C169.929 106.4 170.052 106.184 170.159 105.961C170.155 105.783 170.139 105.6 170.139 105.417Z" fill="#452B21"/>
<path d="M144.871 13.8926C144.761 13.8923 144.657 13.8414 144.589 13.7545C144.53 13.6797 144.504 13.5846 144.515 13.4902C144.527 13.3958 144.575 13.3099 144.65 13.2513C145.339 12.7489 145.976 12.1795 146.552 11.5515C147.098 10.954 147.452 10.2071 147.57 9.40675C147.58 9.31177 147.627 9.22457 147.701 9.1647C147.776 9.10484 147.871 9.07732 147.966 9.08831C148.06 9.09854 148.147 9.14601 148.206 9.22023C148.266 9.29445 148.293 9.3893 148.283 9.48382C148.148 10.4282 147.733 11.3105 147.092 12.0168C146.485 12.6817 145.813 13.2843 145.087 13.8155C145.025 13.8641 144.95 13.8911 144.871 13.8926Z" fill="#633E2F"/>
<path d="M89.0038 113.06C89.8864 114.202 99.1577 109.118 101.666 107.446C104.174 105.774 113.735 104.22 118.151 106.012C123.407 105.655 127.109 100.158 127.947 97.5308C128.785 94.9033 127.381 79.7314 128.918 77.8208C130.455 75.9101 133.202 60.2613 133.202 53.811C133.202 47.3607 136.307 48.793 135.353 44.851C134.399 40.909 129.973 33.2634 123.284 34.937C116.595 36.6107 113.131 40.1935 106.203 50.8243C99.274 61.4551 98.4379 63.9634 96.5258 70.056C94.6136 76.1486 95.8089 84.2711 92.1068 90.243C88.4047 96.2149 86.9724 110.433 89.0038 113.06Z" fill="#E04428"/>
<g style="mix-blend-mode:multiply" opacity="0.3">
<path d="M130.385 51.3742C129.54 50.429 128.689 49.4839 127.789 48.5954C127.417 48.2261 127.039 47.8611 126.649 47.5092L126.528 47.3987C126.403 47.3144 125.772 46.7996 125.595 46.6833C125.356 46.5263 125.103 46.3925 124.858 46.2471C124.674 46.8854 124.491 47.5267 124.312 48.1752C123.338 52.5309 122.61 56.9379 122.131 61.3753C120.735 70.2379 119.144 78.4768 114.24 86.1819C112.015 89.6717 109.212 92.9754 107.519 96.7851C106.88 98.3531 106.438 99.9941 106.202 101.671C106.52 101.634 106.841 101.618 107.161 101.623C109.513 101.667 111.824 102.246 113.918 103.315C114.61 103.685 115.26 104.128 115.857 104.637C116.316 104.992 116.751 105.315 117.152 105.693C117.492 105.779 117.825 105.887 118.151 106.016C123.408 105.658 127.11 100.161 127.946 97.5339C128.782 94.9064 127.38 79.7345 128.917 77.8239C130.454 75.9132 133.203 60.2644 133.203 53.8141C133.203 53.644 133.203 53.484 133.203 53.3255C132.127 52.8984 131.163 52.2309 130.385 51.3742Z" fill="#E04428"/>
</g>
<path d="M117.907 76.6283C119.34 78.062 136.422 72.4478 140.009 68.6308C140.009 68.6308 132.842 60.8661 127.824 64.2104C122.806 67.5548 117.907 76.6283 117.907 76.6283Z" fill="#C43C23"/>
<path d="M122.702 69.3279C122.702 69.3279 128.27 83.5561 131.512 87.7365C134.755 91.917 156.883 97.5312 158.539 98.8457C160.196 100.16 161.272 102.907 163.184 103.026C165.096 103.145 168.677 100.278 170.232 100.99C171.786 101.703 170.589 104.335 171.068 104.454C171.546 104.573 173.934 102.065 174.412 100.99C174.891 99.9159 176.204 94.7801 173.816 94.4209C171.428 94.0618 166.887 93.4656 164.856 94.8979C162.588 93.5892 147.051 84.2671 143.291 79.8467C139.53 75.4263 137.91 62.7656 137.91 62.7656L122.702 69.3279Z" fill="#FE9D77"/>
<path d="M130.026 75.5427C132.084 73.2161 134.755 71.9482 136.656 69.8354C137.371 69.04 138.056 68.3232 138.752 67.663C138.179 64.8726 137.909 62.7715 137.909 62.7715L122.702 69.3279C122.702 69.3279 124.792 74.6644 127.156 79.761C127.932 78.2399 128.896 76.8226 130.026 75.5427Z" fill="#E8825A"/>
<path d="M141.495 66.7135L138.841 68.1021L130.211 43.5398C130.211 43.5398 133.81 40.162 135.349 44.8485C136.887 49.535 141.495 66.7135 141.495 66.7135Z" fill="#C43C23"/>
<path d="M172.265 101.987C172.173 101.987 172.087 101.94 172.038 101.862C171.832 101.473 171.731 101.036 171.747 100.596L171.734 100.354C171.714 100.064 171.628 99.5343 171.279 99.3671C171.215 99.3366 171.165 99.2817 171.141 99.2145C171.118 99.1474 171.122 99.0736 171.152 99.0094C171.183 98.945 171.238 98.8955 171.305 98.8718C171.372 98.848 171.446 98.852 171.51 98.8829C172.01 99.1839 172.303 99.7357 172.272 100.318L172.285 100.571C172.269 100.918 172.341 101.263 172.493 101.574C172.572 101.7 172.535 101.866 172.41 101.945C172.367 101.973 172.316 101.988 172.265 101.987Z" fill="#D17551"/>
<path d="M173.44 100.428H173.422C173.35 100.424 173.283 100.39 173.235 100.335C173.188 100.281 173.165 100.209 173.171 100.137C173.224 99.1053 172.803 98.1058 172.026 97.4238C171.972 97.3777 171.939 97.3118 171.933 97.2409C171.928 97.1699 171.951 97.0997 171.997 97.0458C172.044 96.9915 172.11 96.958 172.181 96.9529C172.252 96.9477 172.322 96.9712 172.375 97.0182C173.278 97.8106 173.768 98.9726 173.706 100.172C173.699 100.314 173.582 100.427 173.44 100.428Z" fill="#D17551"/>
<path d="M174.299 97.4419H174.279C174.207 97.4363 174.141 97.4025 174.094 97.348C174.047 97.2934 174.024 97.2226 174.03 97.151C174.046 96.8251 173.927 96.5071 173.701 96.2713C173.487 96.0254 173.181 95.8778 172.855 95.8627C172.784 95.8616 172.716 95.8323 172.667 95.7813C172.618 95.7303 172.591 95.6618 172.592 95.5908C172.605 95.447 172.721 95.3343 172.865 95.3262C173.339 95.3429 173.785 95.5531 174.1 95.9078C174.425 96.2533 174.594 96.7168 174.568 97.1903C174.559 97.332 174.441 97.4422 174.299 97.4419Z" fill="#D17551"/>
<path d="M115.942 104.07C115.87 104.07 115.8 104.048 115.74 104.009C112.825 102.015 108.906 101.926 105.761 101.857C103.916 101.601 102.04 101.982 100.44 102.935C100.284 103.056 100.06 103.028 99.9373 102.873C99.8157 102.717 99.843 102.492 99.9984 102.37C101.724 101.302 103.766 100.868 105.777 101.14C109.018 101.212 113.047 101.304 116.144 103.417C116.307 103.529 116.348 103.751 116.238 103.914C116.171 104.011 116.06 104.07 115.942 104.07Z" fill="#633E2F"/>
<path d="M118.984 94.174C118.833 94.1738 118.698 94.0791 118.647 93.9369C118.58 93.7506 118.676 93.5451 118.862 93.4775C119.693 93.1209 120.462 92.6345 121.141 92.0365C123.319 90.5293 125.186 88.6156 126.639 86.4005C126.685 86.3175 126.762 86.2563 126.853 86.2304C126.945 86.2045 127.043 86.2159 127.126 86.2623C127.21 86.3076 127.273 86.3846 127.3 86.4763C127.327 86.5681 127.317 86.6669 127.271 86.7509C125.776 89.0506 123.846 91.037 121.591 92.5992C120.853 93.2458 120.015 93.7701 119.111 94.1521C119.07 94.1669 119.027 94.1743 118.984 94.174Z" fill="#633E2F"/>
<path d="M93.5757 101.326C93.5381 101.326 93.5008 101.32 93.4652 101.308C93.277 101.247 93.1743 101.044 93.2354 100.856C94.4124 97.2539 95.3141 93.5673 95.9327 89.8284C95.9487 89.735 96.0013 89.6518 96.0788 89.5972C96.1563 89.5426 96.2524 89.5212 96.3457 89.5376C96.5394 89.5724 96.6691 89.7565 96.6365 89.9506C96.011 93.7253 95.1006 97.4473 93.913 101.084C93.8631 101.228 93.7279 101.325 93.5757 101.326Z" fill="#633E2F"/>
<path d="M116.956 53.2149C116.936 53.5726 117.554 76.3886 117.911 76.6256C118.269 76.8626 125.795 70.2946 130.334 69.6984C134.872 69.1022 140.011 68.6238 140.011 68.6238C140.011 68.6238 138.066 50.5016 135.357 44.8525C132.649 39.2034 118.031 34.9386 116.956 53.2149Z" fill="#E04428"/>
<path d="M123.168 71.4917C123.006 71.4912 122.864 71.3821 122.823 71.2256C122.81 71.182 121.616 66.7456 120.905 62.8342C120.888 62.7404 120.909 62.6438 120.964 62.5657C121.019 62.4877 121.102 62.4346 121.196 62.4183C121.29 62.4005 121.387 62.4214 121.466 62.4761C121.544 62.5308 121.597 62.6148 121.613 62.7091C122.318 66.5915 123.504 70.9974 123.518 71.0424C123.566 71.2324 123.454 71.4262 123.265 71.4787C123.233 71.4871 123.201 71.4915 123.168 71.4917Z" fill="#633E2F"/>
<path d="M117.911 76.9862C117.733 76.986 117.582 76.8554 117.556 76.6794C117.529 76.4875 114.85 57.3241 117.902 46.4069C117.956 46.2193 118.15 46.1089 118.338 46.1583C118.526 46.2119 118.636 46.406 118.586 46.5945C115.576 57.3663 118.232 76.3813 118.26 76.5733C118.274 76.6674 118.249 76.7631 118.192 76.8392C118.135 76.9153 118.05 76.9656 117.956 76.9789L117.911 76.9862Z" fill="#633E2F"/>
<path d="M69.0104 138.7C68.945 138.7 68.8782 138.694 68.8141 138.683L18.684 129.409C18.1383 129.306 17.7601 128.805 17.8125 128.253C17.8622 127.699 18.3268 127.275 18.8816 127.275H78.8163C79.1016 127.275 79.3751 127.389 79.5766 127.589C79.7782 127.791 79.8907 128.065 79.8907 128.35C79.8907 128.944 79.4104 129.424 78.8163 129.424H57.7859L69.5771 136.71C70.0194 136.983 70.2039 137.534 70.0128 138.018C69.8523 138.43 69.4546 138.7 69.0136 138.7H69.0104Z" fill="#0E4161"/>
<path d="M169.79 192.378H90.9207C90.7235 192.377 90.5638 192.217 90.563 192.02C90.563 191.822 90.7231 191.662 90.9207 191.662H169.79C169.885 191.662 169.977 191.699 170.044 191.766C170.111 191.833 170.149 191.925 170.149 192.02C170.149 192.115 170.111 192.206 170.044 192.273C169.977 192.34 169.885 192.378 169.79 192.378Z" fill="#633E2F"/>
<path d="M25.2164 181.328C25.1887 170.465 35.4895 157.976 46.001 150.33C56.5126 142.685 80.2243 140.774 88.0792 151.285C95.9342 161.797 96.9492 188.555 88.0792 192.019C76.1034 186.638 62.4874 181.507 47.6747 181.328C32.8619 181.149 25.2236 184.204 25.2164 181.328Z" fill="#E04428"/>
<path d="M173.588 193.384C173.588 193.384 191.023 177.087 205.358 174.336C219.694 171.585 223.754 170.766 225.666 170.461C227.578 170.155 217.304 147.937 198.191 151.758C179.079 155.579 172.153 177.43 173.588 193.384Z" fill="#E04428"/>
<path d="M194.839 102.956C194.704 102.957 194.58 102.881 194.519 102.76C191.815 97.4003 193.045 85.8099 193.099 85.3198C193.108 85.225 193.155 85.1378 193.229 85.0779C193.303 85.018 193.398 84.9904 193.493 85.0014C193.69 85.0227 193.832 85.1998 193.811 85.3969C193.798 85.5147 192.551 97.2666 195.159 102.437C195.202 102.522 195.21 102.621 195.18 102.711C195.15 102.801 195.086 102.876 195.001 102.919C194.951 102.944 194.895 102.957 194.839 102.956Z" fill="#633E2F"/>
<path d="M178.824 97.2165C178.268 97.2075 177.725 97.0514 177.249 96.7643C177.078 96.6655 177.02 96.4468 177.118 96.2757C177.166 96.1932 177.244 96.133 177.336 96.1084C177.428 96.0838 177.526 96.097 177.608 96.1448C178.214 96.5416 178.978 96.6087 179.644 96.3237C180.771 95.8279 182.379 94.0451 183.641 88.3684C183.687 88.1771 183.876 88.0566 184.069 88.0965C184.162 88.117 184.242 88.1736 184.293 88.2538C184.345 88.334 184.361 88.4312 184.341 88.524C183.275 93.3225 181.792 96.1623 179.932 96.9809C179.583 97.1355 179.206 97.2158 178.824 97.2165Z" fill="#633E2F"/>
<path d="M123.557 25.5515C123.419 25.5518 123.292 25.4719 123.233 25.3464C123.141 25.1423 123.092 24.9217 123.088 24.6979C123.112 23.8732 123.306 23.0624 123.658 22.3161C124.045 21.5747 124.206 20.736 124.121 19.9038C124.034 19.5805 123.911 19.2679 123.755 18.9718L123.096 17.5991C123.055 17.5135 123.049 17.415 123.081 17.3252C123.112 17.2354 123.178 17.1618 123.264 17.1207C123.349 17.0793 123.448 17.0736 123.537 17.105C123.627 17.1364 123.701 17.2022 123.742 17.2879L124.402 18.662C124.584 19.0071 124.725 19.3721 124.822 19.7497C124.945 20.7208 124.773 21.7066 124.326 22.5779C124.013 23.2335 123.836 23.9457 123.804 24.6718C123.804 24.798 123.828 24.9232 123.877 25.0396C123.918 25.1254 123.924 25.2241 123.892 25.3139C123.861 25.4037 123.794 25.4772 123.708 25.518C123.661 25.5398 123.609 25.5512 123.557 25.5515Z" fill="#452B21"/>
<path d="M146.665 23.2059C147.597 22.6795 148.211 25.9105 147.935 27.2948C147.298 30.4618 143.282 36.4918 141.501 37.389C139.719 38.2862 132.439 34.7848 131.507 32.3841C130.575 29.9834 136.952 22.9238 136.952 22.9238C136.952 22.9238 144.762 24.2819 146.665 23.2059Z" fill="white"/>
<path d="M136.951 22.922C135.98 22.8144 131.414 18.8419 131.414 18.8419C131.414 18.8419 131.103 18.8084 132.038 20.1593C132.973 21.5101 136.343 23.5691 135.536 24.5913C134.729 25.6135 136.951 22.922 136.951 22.922Z" fill="white"/>
<path d="M132.035 33.2124C130.223 31.5984 128.99 21.6074 128.99 21.6074C128.99 21.6074 131.424 30.8743 132.029 29.7503C132.634 28.6263 132.035 33.2124 132.035 33.2124Z" fill="white"/>
<path d="M128.763 22.2333C129.008 23.195 129.52 24.0674 130.242 24.7488C132.339 26.4298 132.962 22.9065 132.973 21.5121C133.025 20.4262 132.624 19.3675 131.865 18.5894C131.617 18.3505 131.314 18.1775 130.982 18.0862C128.754 17.5351 128.347 20.8112 128.763 22.2333Z" fill="#FE9D77"/>
<g style="mix-blend-mode:multiply" opacity="0.3">
<path d="M147.362 26.5409H147.351L142.139 26.3809C141.941 26.3746 141.786 26.2094 141.792 26.0116C141.813 25.8208 141.969 25.6736 142.161 25.6641L147.371 25.824C147.569 25.8303 147.724 25.9955 147.718 26.1933C147.712 26.3857 147.555 26.5387 147.362 26.5409Z" fill="#D3E6F2"/>
</g>
<g style="mix-blend-mode:multiply" opacity="0.3">
<path d="M145.318 31.8344C145.268 31.8344 145.218 31.8234 145.172 31.8024L137.536 28.3533C137.449 28.314 137.381 28.2418 137.348 28.1526C137.314 28.0635 137.317 27.9646 137.357 27.8778C137.396 27.7912 137.468 27.7236 137.557 27.69C137.646 27.6565 137.744 27.6597 137.831 27.699L145.469 31.1481C145.556 31.1871 145.623 31.259 145.657 31.348C145.69 31.4369 145.687 31.5355 145.648 31.6221C145.59 31.7523 145.46 31.8357 145.318 31.8344Z" fill="#D3E6F2"/>
</g>
<g style="mix-blend-mode:multiply" opacity="0.3">
<path d="M141.799 35.9054C141.726 35.9054 141.655 35.8837 141.595 35.8429L136.992 32.6774C136.829 32.5653 136.788 32.3427 136.9 32.1801C136.954 32.1018 137.036 32.048 137.129 32.0305C137.223 32.0131 137.319 32.0334 137.397 32.087L142.001 35.2525C142.079 35.3061 142.133 35.3886 142.15 35.4819C142.168 35.5752 142.148 35.6715 142.094 35.7498C142.027 35.8472 141.917 35.9054 141.799 35.9054Z" fill="#D3E6F2"/>
</g>
</svg>
